<svg xmlns="http://www.w3.org/2000/svg" xmlns:xlink="http://www.w3.org/1999/xlink" width="59" height="59" viewBox="0 0 59 59">
  <defs>
    <clipPath id="clip-path">
      <rect id="Rectangle_161" data-name="Rectangle 161" width="59" height="59" transform="translate(0 -0.464)" fill="#007bc6" stroke="#707070" stroke-width="1"/>
    </clipPath>
  </defs>
  <g id="icon-hotline" transform="translate(0 0.464)" clip-path="url(#clip-path)">
    <g id="support" transform="translate(2.973 0)">
      <g id="Group_152" data-name="Group 152" transform="translate(37.732 45.278)">
        <g id="Group_151" data-name="Group 151">
          <path id="Path_117" data-name="Path 117" d="M42.862,46.406a1.143,1.143,0,1,0,1.143,1.143A1.144,1.144,0,0,0,42.862,46.406Z" transform="translate(-41.719 -46.406)" fill="#007bc6"/>
        </g>
      </g>
      <g id="Group_154" data-name="Group 154">
        <g id="Group_153" data-name="Group 153">
          <path id="Path_118" data-name="Path 118" d="M44.737,41.581,39.3,39.77l-1.951-3.9a12.523,12.523,0,0,0,3.389-6.625l.243-1.458h2.081a3.434,3.434,0,0,0,3.43-3.43v-7.2a17.151,17.151,0,1,0-34.3,0v7.2a3.436,3.436,0,0,0,2.287,3.234v1.34a3.434,3.434,0,0,0,3.43,3.43h1a12.4,12.4,0,0,0,1.918,2.97c.162.186.331.367.5.542l-1.95,3.9-5.435,1.811C7.633,43.688,3.047,50.34,3.047,57.4A1.143,1.143,0,0,0,4.19,58.542H54.5A1.143,1.143,0,0,0,55.643,57.4C55.643,50.34,51.057,43.688,44.737,41.581Zm-.528-17.227A1.145,1.145,0,0,1,43.066,25.5H41.321c.291-2.251.484-4.647.562-7.007,0-.067,0-.131.006-.2h2.32ZM15.624,25.5a1.145,1.145,0,0,1-1.143-1.143v-6.06H16.8q.006.179.012.36s0,.008,0,.012h0c.08,2.3.271,4.629.555,6.83H15.624Zm2.287,4.574a1.145,1.145,0,0,1-1.143-1.143V27.784H17.7l.243,1.459q.07.416.169.828ZM16.77,16.007H14.524a14.865,14.865,0,0,1,29.641,0H41.92A11.581,11.581,0,0,0,30.368,4.574H28.322A11.581,11.581,0,0,0,16.77,16.007ZM28.322,6.86h2.047a9.3,9.3,0,0,1,9.267,9.308c0,.36,0,.673-.009.958,0,0,0,.007,0,.011l-1.43-.2a18.373,18.373,0,0,1-10.33-5.165,1.144,1.144,0,0,0-.809-.335A10.344,10.344,0,0,0,19.1,15.2,9.3,9.3,0,0,1,28.322,6.86ZM20.488,30.071a65.352,65.352,0,0,1-1.372-11.1l1.539-2.052a8.048,8.048,0,0,1,5.951-3.189A20.681,20.681,0,0,0,37.873,19.2l1.683.241c-.113,2.388-.342,4.784-.672,6.988v0c-.1.709-.187,1.165-.4,2.438a9.712,9.712,0,0,1-6.893,7.811,9,9,0,0,1-10.1-4.32h2.331a3.436,3.436,0,0,0,3.234,2.287h2.287a3.43,3.43,0,0,0,0-6.86H27.058a3.432,3.432,0,0,0-3.235,2.287Zm6.474,8.92a11.469,11.469,0,0,0,4.253.1l-2.02,2.137Zm.66,3.895L24,46.721a43.563,43.563,0,0,1-2.56-5.936L22.8,38.061ZM35.7,37.674l1.555,3.111a43.553,43.553,0,0,1-2.56,5.938l-3.882-3.882Zm-9.784-6.459a1.144,1.144,0,0,1,1.143-1.143h2.287a1.143,1.143,0,1,1,0,2.287H27.058A1.145,1.145,0,0,1,25.915,31.215ZM5.379,56.255c.453-5.664,4.223-10.813,9.3-12.5l4.813-1.6a45.838,45.838,0,0,0,3.254,7.059l.006.012h0A45.848,45.848,0,0,0,25.879,54l1.407,2.258Zm23.965-1.019-1.551-2.49q-.026-.042-.056-.081a43.587,43.587,0,0,1-2.576-3.849L29.24,44.5l4.3,4.3a43.54,43.54,0,0,1-2.585,3.864C30.9,52.739,30.975,52.622,29.345,55.236ZM31.4,56.255,32.811,54a45.822,45.822,0,0,0,3.152-4.817l.017-.03,0,0a45.793,45.793,0,0,0,3.22-7l4.813,1.6c5.073,1.692,8.843,6.84,9.3,12.5H31.4Z" transform="translate(-3.047)" fill="#007bc6"/>
        </g>
      </g>
      <g id="Group_156" data-name="Group 156" transform="translate(41.75 47.461)">
        <g id="Group_155" data-name="Group 155">
          <path id="Path_119" data-name="Path 119" d="M50.914,52.81a11.421,11.421,0,0,0-3.237-3.929,1.143,1.143,0,0,0-1.394,1.813,9.131,9.131,0,0,1,2.585,3.139,1.143,1.143,0,0,0,2.046-1.022Z" transform="translate(-45.837 -48.643)" fill="#007bc6"/>
        </g>
      </g>
    </g>
  </g>
</svg>
