<svg xmlns="http://www.w3.org/2000/svg" xmlns:xlink="http://www.w3.org/1999/xlink" width="16" height="16" viewBox="0 0 16 16">
  <defs>
    <clipPath id="clip-path">
      <rect id="Rectangle_146" data-name="Rectangle 146" width="16" height="16" fill="#007bc6" stroke="#707070" stroke-width="1"/>
    </clipPath>
  </defs>
  <g id="icon-location" clip-path="url(#clip-path)">
    <g id="location_1_" data-name="location (1)" transform="translate(0.969)">
      <g id="Group_133" data-name="Group 133">
        <g id="Group_132" data-name="Group 132">
          <path id="Path_87" data-name="Path 87" d="M10.671,10.571c1.7-2.672,1.489-2.338,1.538-2.408a5.118,5.118,0,0,0,.947-2.976A5.156,5.156,0,1,0,3.818,8.2l1.51,2.37c-1.615.248-4.36.988-4.36,2.616,0,.594.387,1.44,2.233,2.1A14.8,14.8,0,0,0,8,16c3.376,0,7.031-.952,7.031-2.812C15.031,11.559,12.289,10.82,10.671,10.571ZM4.6,7.686l-.016-.024a4.219,4.219,0,1,1,6.863-.047c-.045.06.19-.306-3.449,5.4ZM8,15.063c-3.687,0-6.094-1.084-6.094-1.875,0-.532,1.237-1.406,3.977-1.747l1.722,2.7a.469.469,0,0,0,.791,0l1.722-2.7c2.74.341,3.977,1.215,3.977,1.747C14.094,13.972,11.709,15.063,8,15.063Z" transform="translate(-0.969)" fill="#007bc6"/>
        </g>
      </g>
      <g id="Group_135" data-name="Group 135" transform="translate(4.688 2.844)">
        <g id="Group_134" data-name="Group 134">
          <path id="Path_88" data-name="Path 88" d="M8,2.844a2.344,2.344,0,1,0,2.344,2.344A2.346,2.346,0,0,0,8,2.844Zm0,3.75A1.406,1.406,0,1,1,9.406,5.188,1.408,1.408,0,0,1,8,6.594Z" transform="translate(-5.656 -2.844)" fill="#007bc6"/>
        </g>
      </g>
    </g>
  </g>
</svg>
