<svg xmlns="http://www.w3.org/2000/svg" xmlns:xlink="http://www.w3.org/1999/xlink" width="16" height="16" viewBox="0 0 16 16">
  <defs>
    <clipPath id="clip-path">
      <rect id="Rectangle_147" data-name="Rectangle 147" width="16" height="16" fill="#007bc6" stroke="#707070" stroke-width="1"/>
    </clipPath>
  </defs>
  <g id="icon-phone" clip-path="url(#clip-path)">
    <g id="phone-call" transform="translate(0 0.015)">
      <path id="Path_89" data-name="Path 89" d="M12.479,11.138a1.6,1.6,0,0,0-2.262,0l-.772.772a13.911,13.911,0,0,1-2.4-1.926,14.166,14.166,0,0,1-1.926-2.4l.772-.772a1.6,1.6,0,0,0,0-2.262l-1.506-1.5a1.559,1.559,0,0,0-1.123-.468,1.6,1.6,0,0,0-1.133.468L1.4,3.768A3.39,3.39,0,0,0,.532,6.561a11.277,11.277,0,0,0,3.5,6.418A11.451,11.451,0,0,0,10.468,16.5a4.188,4.188,0,0,0,.447,0,3.23,3.23,0,0,0,2.347-.873l.718-.724a1.6,1.6,0,0,0,.468-1.133,1.559,1.559,0,0,0-.468-1.123Zm.75,3.012-.724.718a2.432,2.432,0,0,1-1.948.532,10.348,10.348,0,0,1-5.753-3.193A10.448,10.448,0,0,1,1.6,6.471a2.411,2.411,0,0,1,.532-1.948l.75-.724a.54.54,0,0,1,.756,0L5.141,5.322a.532.532,0,0,1,0,.75L4.076,7.136a.532.532,0,0,0-.085.644A14.629,14.629,0,0,0,6.3,10.75a14.629,14.629,0,0,0,2.969,2.3.532.532,0,0,0,.644-.085L10.973,11.9a.532.532,0,0,1,.75,0l1.506,1.506a.52.52,0,0,1,0,.74Z" transform="translate(-0.497 -0.532)" fill="#007bc6"/>
      <path id="Path_90" data-name="Path 90" d="M14.155,2.868A7.94,7.94,0,0,0,8.515.532a.532.532,0,0,0,0,1.064,6.918,6.918,0,0,1,6.918,6.977.532.532,0,1,0,1.064,0,7.934,7.934,0,0,0-2.341-5.7Z" transform="translate(-0.497 -0.532)" fill="#007bc6"/>
      <path id="Path_91" data-name="Path 91" d="M11.127,5.912a3.193,3.193,0,0,1,.942,2.294.532.532,0,1,0,1.064,0A4.257,4.257,0,0,0,8.876,3.9a.532.532,0,1,0,0,1.064,3.193,3.193,0,0,1,2.251.953Z" transform="translate(-0.497 -0.532)" fill="#007bc6"/>
    </g>
  </g>
</svg>
