<svg xmlns="http://www.w3.org/2000/svg" xmlns:xlink="http://www.w3.org/1999/xlink" width="60" height="60" viewBox="0 0 60 60">
  <defs>
    <clipPath id="clip-path">
      <rect id="Rectangle_170" data-name="Rectangle 170" width="60" height="60" transform="translate(1361 3950)" fill="#007bc6" stroke="#707070" stroke-width="1"/>
    </clipPath>
  </defs>
  <g id="icon--cus-4" transform="translate(-1361 -3950)" clip-path="url(#clip-path)">
    <g id="technics" transform="translate(1361 3950)">
      <g id="Group_166" data-name="Group 166">
        <g id="Group_165" data-name="Group 165">
          <path id="Path_141" data-name="Path 141" d="M57.427,45.044c-5.37-5.37-5.018-5.03-5.169-5.141L38.043,29.407l5.514-5.514A12.305,12.305,0,0,0,58.793,7a1.758,1.758,0,0,0-2.828-.485l-4.546,4.546a1.757,1.757,0,0,1-2.485-2.485l4.546-4.546A1.758,1.758,0,0,0,52.994,1.2,12.305,12.305,0,0,0,36.1,16.438L29.743,22.8c-1.295-1.007.414.713-11.781-12.218L19.24,9.3A1.758,1.758,0,0,0,18.9,6.551L9.49.9A6.258,6.258,0,0,0,.9,9.491L6.55,18.9a1.758,1.758,0,0,0,2.749.338l1.206-1.206C22.637,30.9,21.04,29.152,22,30.385c.023.029.048.055.072.082l-5.639,5.639A12.305,12.305,0,0,0,1.2,53a1.758,1.758,0,0,0,2.828.485l4.546-4.546a1.757,1.757,0,0,1,2.485,2.485L6.511,55.969A1.758,1.758,0,0,0,7,58.8,12.305,12.305,0,0,0,23.888,43.562L28.7,38.746,39.917,52.373c.085.1-.2-.185,4.819,4.83a9.431,9.431,0,0,0,6.64,2.772,8.407,8.407,0,0,0,4.934-1.556A8.794,8.794,0,0,0,57.427,45.044ZM11.821,14.308A1.758,1.758,0,0,0,9.3,14.271l-.894.894L3.917,7.682A2.744,2.744,0,0,1,7.681,3.918l7.482,4.489L14.27,9.3a1.757,1.757,0,0,0-.036,2.448c14.012,14.858,11.808,12.622,13,13.553l-2.667,2.667C23.65,26.783,25.79,29.12,11.821,14.308Zm8.752,27.6a1.757,1.757,0,0,0-.343,2,8.795,8.795,0,0,1-9.174,12.487l2.486-2.486a5.272,5.272,0,0,0-7.455-7.455L3.6,48.938a8.79,8.79,0,0,1,12.488-9.174,1.757,1.757,0,0,0,2-.343L39.417,18.093a1.757,1.757,0,0,0,.343-2A8.79,8.79,0,0,1,48.934,3.606L46.448,6.092A5.272,5.272,0,0,0,53.9,13.547l2.486-2.486A8.79,8.79,0,0,1,43.9,20.235a1.757,1.757,0,0,0-2,.343Zm10.62-5.649L35.53,31.92l4.42,3.263-5.281,5.281C31.079,36.1,31.3,36.364,31.193,36.257Zm23.062,19.31a5.527,5.527,0,0,1-7.034-.849l-4.644-4.644-5.663-6.883,5.9-5.9,7.255,5.357,4.877,4.877A5.274,5.274,0,0,1,54.255,55.567Z" fill="#007bc6"/>
        </g>
      </g>
      <g id="Group_168" data-name="Group 168">
        <g id="Group_167" data-name="Group 167">
          <path id="Path_142" data-name="Path 142" d="M52.426,49.711,45.4,42.682a1.757,1.757,0,0,0-2.485,2.485L49.941,52.2a1.757,1.757,0,0,0,2.485-2.485Z" fill="#007bc6"/>
        </g>
      </g>
    </g>
  </g>
</svg>
