<svg xmlns="http://www.w3.org/2000/svg" xmlns:xlink="http://www.w3.org/1999/xlink" width="32" height="32" viewBox="0 0 32 32">
  <defs>
    <clipPath id="clip-path">
      <rect id="Rectangle_3071" data-name="Rectangle 3071" width="32" height="32" transform="translate(3443 -865)" fill="#00395e"/>
    </clipPath>
  </defs>
  <g id="icon-intro-1" transform="translate(-3443 865)" clip-path="url(#clip-path)">
    <g id="location" transform="translate(3443 -865)">
      <path id="_x36_" d="M46.921,94.317a.5.5,0,0,1-.5.5.5.5,0,0,1-.5-.5v-6.29a1.471,1.471,0,0,1,.481-1.082,1.626,1.626,0,0,1,1.111-.431h5.851a1.609,1.609,0,0,1,1.11.431,1.472,1.472,0,0,1,.481,1.082v6.29a.5.5,0,0,1-.5.5.5.5,0,0,1-.5-.5v-6.29a.482.482,0,0,0-.156-.354.655.655,0,0,0-.438-.163H50.94v6.806a.5.5,0,0,1-.495.5.5.5,0,0,1-.5-.5V87.51H47.516a.651.651,0,0,0-.431.163.489.489,0,0,0-.163.353v6.29Z" transform="translate(-34.471 -64.885)" fill="#00395e"/>
      <path id="_x35_" d="M42.8,41.536h3.268a.492.492,0,0,1,.5.5v3.042a.492.492,0,0,1-.5.495H42.8a.492.492,0,0,1-.5-.495V42.031A.492.492,0,0,1,42.8,41.536Zm0-6.049h3.268a.492.492,0,0,1,.5.5v3.042a.492.492,0,0,1-.5.5H42.8a.492.492,0,0,1-.5-.5V35.982A.492.492,0,0,1,42.8,35.487Zm2.766,1H43.3v2.037h2.264Zm5.462,2.037a.5.5,0,0,1,.495.5.492.492,0,0,1-.495.5H49.391a.5.5,0,0,1-.5-.5V35.982a.5.5,0,0,1,.5-.5.492.492,0,0,1,.5.5v2.54Zm-1.634,3.014h3.261a.5.5,0,0,1,.5.5v3.042a.5.5,0,0,1-.5.495H49.391a.5.5,0,0,1-.5-.495V42.031A.5.5,0,0,1,49.391,41.536Zm2.766,1H49.886v2.037h2.271Zm-6.594,0H43.3v2.037h2.264Z" transform="translate(-31.755 -26.615)" fill="#00395e"/>
      <path id="_x34_" d="M80.117,15.324a.5.5,0,0,1-.679.177.569.569,0,0,1-.184-.184L74.966,8.051a5.416,5.416,0,1,1,9.962-1.28,5.291,5.291,0,0,1-.51,1.273Zm-.424-1.231,3.863-6.544a4.314,4.314,0,0,0,.41-1.026,4.415,4.415,0,1,0-8.688-1.111,4.711,4.711,0,0,0,.135,1.111,4.637,4.637,0,0,0,.4,1.011Z" transform="translate(-55.738 0)" fill="#00395e"/>
      <path id="_x33_" d="M87.27,10.1a2.892,2.892,0,1,1-2.886,2.886,2.847,2.847,0,0,1,.842-2.037A2.882,2.882,0,0,1,87.27,10.1Zm1.33,1.549a1.88,1.88,0,1,0,.559,1.337A1.883,1.883,0,0,0,88.6,11.652Z" transform="translate(-63.316 -7.577)" fill="#00395e"/>
      <path id="_x32_" d="M26.372,94.217a.5.5,0,0,1-.495-.5.492.492,0,0,1,.495-.5h1.811a1.521,1.521,0,0,1,1.415.934l2.342,5.7a1.432,1.432,0,0,1,.106.722,1.514,1.514,0,0,1-1.521,1.337H1.646a1.525,1.525,0,0,1-1.528-1.337,1.6,1.6,0,0,1,.106-.722l2.349-5.7a1.52,1.52,0,0,1,1.415-.934h1.8a.492.492,0,0,1,.5.5.5.5,0,0,1-.5.5h-1.8a.507.507,0,0,0-.5.318l-2.342,5.7a.458.458,0,0,0-.042.234.544.544,0,0,0,.276.389.616.616,0,0,0,.262.057h28.88a.563.563,0,0,0,.255-.057.507.507,0,0,0,.276-.389.452.452,0,0,0-.036-.234l-2.342-5.7a.507.507,0,0,0-.5-.318Z" transform="translate(-0.112 -69.914)" fill="#00395e"/>
      <path id="_x31_" d="M46.058,35.594a.5.5,0,0,1,.5-.5.5.5,0,0,1,.5.5V47.558a.5.5,0,0,1-.5.5H30.6a.5.5,0,0,1-.5-.5V25.689a1.471,1.471,0,0,1,.481-1.082,1.616,1.616,0,0,1,1.111-.439H39.57a.5.5,0,0,1,0,1H31.7a.622.622,0,0,0-.438.163.482.482,0,0,0-.156.354V47.062H46.058V35.594Z" transform="translate(-22.606 -18.126)" fill="#00395e"/>
    </g>
  </g>
</svg>
