<svg xmlns="http://www.w3.org/2000/svg" xmlns:xlink="http://www.w3.org/1999/xlink" width="36" height="36" viewBox="0 0 36 36">
  <defs>
    <clipPath id="clip-path">
      <rect id="Rectangle_35" data-name="Rectangle 35" width="36" height="36" transform="translate(601 2562)" fill="#fff" stroke="#707070" stroke-width="1"/>
    </clipPath>
  </defs>
  <g id="icon-mission" transform="translate(-601 -2562)" clip-path="url(#clip-path)">
    <path id="goal" d="M35.68,33.232,23.217,15.472a1.752,1.752,0,0,0-.384-.4V11.25h8.789a1.055,1.055,0,0,0,.9-1.612L30.677,6.68l1.841-2.958a1.055,1.055,0,0,0-.9-1.612H22.833V1.055a1.055,1.055,0,1,0-2.109,0V15.076a1.754,1.754,0,0,0-.384.4l-5.866,8.359-2.262-3.137a1.758,1.758,0,0,0-2.852,0L.333,33.214A1.758,1.758,0,0,0,1.759,36H34.241a1.758,1.758,0,0,0,1.439-2.767Zm-25.689.658,6.785-9.668,1.738,1.62a1.055,1.055,0,0,0,1.438,0l1.826-1.7,1.826,1.7a1.055,1.055,0,0,0,1.438,0l1.739-1.62,6.784,9.668Zm-2.115-.658a1.76,1.76,0,0,0-.284.658H2.446l8.34-11.567,2.4,3.336Zm13.9-16.139,3.779,5.385-1.234,1.15-1.826-1.7a1.055,1.055,0,0,0-1.438,0l-1.826,1.7L18,22.479ZM29.723,4.219l-1.185,1.9a1.055,1.055,0,0,0,0,1.114l1.185,1.9H22.833V4.219Z" transform="translate(601 2562)" fill="#fff"/>
  </g>
</svg>
