<svg xmlns="http://www.w3.org/2000/svg" xmlns:xlink="http://www.w3.org/1999/xlink" width="26" height="26" viewBox="0 0 26 26">
  <defs>
    <clipPath id="clip-path">
      <rect id="Rectangle_93" data-name="Rectangle 93" width="26" height="26" transform="translate(255 4623)" fill="#007bc6" stroke="#707070" stroke-width="1"/>
    </clipPath>
  </defs>
  <g id="icon-tag" transform="translate(-255 -4623)" clip-path="url(#clip-path)">
    <path id="price-tag_1_" data-name="price-tag (1)" d="M11.158,26h0A3.027,3.027,0,0,1,9,25.106L.9,16.994a3.052,3.052,0,0,1,0-4.305L11.821,1.749A5.917,5.917,0,0,1,16.037,0h6.928a3.05,3.05,0,0,1,3.047,3.047V9.953a5.917,5.917,0,0,1-1.747,4.214L13.312,25.109A3.028,3.028,0,0,1,11.158,26ZM16.037,2.031a3.9,3.9,0,0,0-2.778,1.152L2.34,14.124a1.017,1.017,0,0,0,0,1.435l8.1,8.112a1.009,1.009,0,0,0,.718.3h0a1.009,1.009,0,0,0,.718-.3L22.829,12.73A3.9,3.9,0,0,0,23.98,9.953V3.047a1.017,1.017,0,0,0-1.016-1.016Zm2.611,8.277A3.047,3.047,0,1,1,21.7,7.262,3.05,3.05,0,0,1,18.648,10.309Zm0-4.062a1.016,1.016,0,1,0,1.016,1.016A1.017,1.017,0,0,0,18.648,6.246Zm0,0" transform="translate(254.987 4623)" fill="#007bc6"/>
  </g>
</svg>
