<svg id="icon-our-email" xmlns="http://www.w3.org/2000/svg" width="16" height="16" viewBox="0 0 16 16">
  <path id="Path_3984" data-name="Path 3984" d="M140.063,144h-6.438l3.219,2.759Zm0,0" transform="translate(-128.844 -138.854)" fill="#00395e"/>
  <path id="Path_3985" data-name="Path 3985" d="M123.7,156.475a.284.284,0,0,1-.185-.069L120,153.391v5.364h7.408v-5.364l-3.519,3.016A.284.284,0,0,1,123.7,156.475Zm0,0" transform="translate(-115.704 -147.905)" fill="#00395e"/>
  <path id="Path_3986" data-name="Path 3986" d="M8,0a8,8,0,1,0,8,8A8,8,0,0,0,8,0Zm4.286,11.143a.286.286,0,0,1-.286.286H4a.286.286,0,0,1-.286-.286V4.857A.286.286,0,0,1,4,4.571h8a.286.286,0,0,1,.286.286Zm0,0" fill="#00395e"/>
</svg>
