<svg xmlns="http://www.w3.org/2000/svg" xmlns:xlink="http://www.w3.org/1999/xlink" width="32" height="32" viewBox="0 0 32 32">
  <defs>
    <clipPath id="clip-path">
      <rect id="Rectangle_3070" data-name="Rectangle 3070" width="32" height="32" transform="translate(3443 -967)" fill="#00395e"/>
    </clipPath>
  </defs>
  <g id="icon-intro-3" transform="translate(-3443 967)" clip-path="url(#clip-path)">
    <g id="company" transform="translate(3443 -967)">
      <path id="Path_2409" data-name="Path 2409" d="M31.039,28.777a2.585,2.585,0,0,0,.929-1.971V22.677A5.152,5.152,0,0,0,29.9,18.558V7.194H21.645V3.065H19.581V2.032H18.548V3.065H17.516V1H16.484V3.065H15.452V2.032H14.419V3.065H12.355V7.194H4.1V18.558a5.152,5.152,0,0,0-2.065,4.119V29.62A4.474,4.474,0,0,0,1,32.484V33H33v-.516A4.463,4.463,0,0,0,31.039,28.777Zm-.1-6.1v4.129a1.553,1.553,0,0,1-.976,1.434c-.114-.038-.229-.073-.347-.1l-.832-.208-.119-.476a2.575,2.575,0,0,0,1.242-2.2v-3.1h-.516A2.373,2.373,0,0,1,27.409,21.1l-.087-.13V19.581H26.29v1.392l-.087.13a2.373,2.373,0,0,1-1.978,1.059H23.71v3.1a2.573,2.573,0,0,0,1.242,2.2l-.119.475-.826.205c-.12.03-.238.066-.355.1a1.552,1.552,0,0,1-.973-1.432V22.677a4.129,4.129,0,1,1,8.258,0Zm-9.806-1.159a2.941,2.941,0,0,1-.038.393,2.037,2.037,0,0,0-.994-.266h-.6a2.987,2.987,0,0,1-2.127-.881L17,20.4l-.365.365a2.988,2.988,0,0,1-2.127.881h-.6a2.037,2.037,0,0,0-.994.266,2.941,2.941,0,0,1-.038-.393,2.973,2.973,0,0,1,2.97-2.97h2.318A2.973,2.973,0,0,1,21.129,21.518Zm.775,7.819a4.463,4.463,0,0,0-2.1-1.2l-.832-.208-.119-.476a2.58,2.58,0,0,0,1.19-1.679H20.1a2.051,2.051,0,0,0,1.548-.713v1.745a2.587,2.587,0,0,0,.929,1.97,4.453,4.453,0,0,0-.67.561Zm-9.549-.244V25.061a2.051,2.051,0,0,0,1.548.713h.052a2.578,2.578,0,0,0,1.19,1.679l-.119.475-.826.205A4.471,4.471,0,0,0,12.355,29.093ZM13.9,24.742a1.032,1.032,0,1,1,0-2.065Zm3.613,2.065H16.484a1.55,1.55,0,0,1-1.548-1.548v-2.6A4,4,0,0,0,17,21.818a4,4,0,0,0,2.065.837v2.6A1.55,1.55,0,0,1,17.516,26.806Zm-1.395,1a2.549,2.549,0,0,0,.362.037h1.032a2.549,2.549,0,0,0,.362-.037l.11.439L17,29.559l-.988-1.318ZM20.1,22.677a1.032,1.032,0,0,1,0,2.065Zm-5.647,6.459.795-.2L17,31.28l1.755-2.341.8.2a3.432,3.432,0,0,1,2.564,2.828H11.882a3.429,3.429,0,0,1,2.568-2.831Zm8.1,1.032a3.444,3.444,0,0,1,1.706-1.033l.5-.124a5.75,5.75,0,0,0,.962,2.956H23.161a4.452,4.452,0,0,0-.612-1.8Zm4.257-8.156a3.4,3.4,0,0,0,2.065,1.142v2.1a1.55,1.55,0,0,1-1.548,1.548H26.29a1.55,1.55,0,0,1-1.548-1.548v-2.1A3.4,3.4,0,0,0,26.806,22.012Zm-.516,5.827h1.032a2.549,2.549,0,0,0,.362-.037l.154.615v.328c0,.042-.005.083-.006.125H25.78c0-.042-.006-.083-.006-.125v-.328l.154-.616A2.549,2.549,0,0,0,26.29,27.839Zm-.37,2.065h1.771a4.709,4.709,0,0,1-.886,1.8A4.709,4.709,0,0,1,25.921,29.9Zm2.95-11.953a5.152,5.152,0,0,0-6.808,2.7,4.012,4.012,0,0,0-2.482-2.865V8.226h9.29ZM18.548,7.194V17.536c-.128-.012-.258-.02-.389-.02H15.841a3.978,3.978,0,0,0-2.454.847V6.161h7.226V7.194Zm2.065-3.1V5.129H13.387V4.1ZM5.129,8.226h7.226V19.559a3.972,3.972,0,0,0-.418,1.087,5.152,5.152,0,0,0-6.808-2.7ZM7.194,18.548a4.134,4.134,0,0,1,4.129,4.129v6.035A4.474,4.474,0,0,0,10,28.138l-.832-.208-.119-.476a2.575,2.575,0,0,0,1.242-2.2v-3.1H8.515a1.948,1.948,0,0,1-1.624-.87,1.525,1.525,0,0,0-2.794.845v3.122a2.573,2.573,0,0,0,1.242,2.2l-.119.475-.826.205a4.5,4.5,0,0,0-1.329.572V22.677a4.134,4.134,0,0,1,4.129-4.129Zm.516,8.258H6.677a1.55,1.55,0,0,1-1.548-1.548V22.137a.492.492,0,0,1,.9-.272,2.978,2.978,0,0,0,2.484,1.329h.743v2.065A1.55,1.55,0,0,1,7.71,26.806Zm-1.395,1a2.549,2.549,0,0,0,.362.037H7.71a2.549,2.549,0,0,0,.362-.037l.15.6a1.029,1.029,0,0,1-2.056,0ZM4.643,29.136l.6-.148a2.05,2.05,0,0,0,3.909,0l.6.151a3.436,3.436,0,0,1,1.7,1.031,4.474,4.474,0,0,0-.61,1.8H2.069a3.434,3.434,0,0,1,2.573-2.832ZM27.9,31.968a5.751,5.751,0,0,0,.962-2.955l.5.126a3.437,3.437,0,0,1,2.569,2.828H27.9Z" transform="translate(-1 -1)" fill="#00395e"/>
      <path id="Path_2410" data-name="Path 2410" d="M27,13h1.032v1.032H27Z" transform="translate(-13.581 -6.806)" fill="#00395e"/>
      <path id="Path_2411" data-name="Path 2411" d="M31,13h1.032v1.032H31Z" transform="translate(-15.516 -6.806)" fill="#00395e"/>
      <path id="Path_2412" data-name="Path 2412" d="M27,17h1.032v1.032H27Z" transform="translate(-13.581 -8.742)" fill="#00395e"/>
      <path id="Path_2413" data-name="Path 2413" d="M31,17h1.032v1.032H31Z" transform="translate(-15.516 -8.742)" fill="#00395e"/>
      <path id="Path_2414" data-name="Path 2414" d="M31,21h1.032v1.032H31Z" transform="translate(-15.516 -10.677)" fill="#00395e"/>
      <path id="Path_2415" data-name="Path 2415" d="M27,21h1.032v1.032H27Z" transform="translate(-13.581 -10.677)" fill="#00395e"/>
      <path id="Path_2416" data-name="Path 2416" d="M27,25h1.032v1.032H27Z" transform="translate(-13.581 -12.613)" fill="#00395e"/>
      <path id="Path_2417" data-name="Path 2417" d="M31,25h1.032v1.032H31Z" transform="translate(-15.516 -12.613)" fill="#00395e"/>
      <path id="Path_2418" data-name="Path 2418" d="M31,29h1.032v1.032H31Z" transform="translate(-15.516 -14.548)" fill="#00395e"/>
      <path id="Path_2419" data-name="Path 2419" d="M27,29h1.032v1.032H27Z" transform="translate(-13.581 -14.548)" fill="#00395e"/>
      <path id="Path_2420" data-name="Path 2420" d="M39,17h1.032v1.032H39Z" transform="translate(-19.387 -8.742)" fill="#00395e"/>
      <path id="Path_2421" data-name="Path 2421" d="M39,25h1.032v1.032H39Z" transform="translate(-19.387 -12.613)" fill="#00395e"/>
      <path id="Path_2422" data-name="Path 2422" d="M39,21h1.032v1.032H39Z" transform="translate(-19.387 -10.677)" fill="#00395e"/>
      <path id="Path_2423" data-name="Path 2423" d="M39,29h1.032v1.032H39Z" transform="translate(-19.387 -14.548)" fill="#00395e"/>
      <path id="Path_2424" data-name="Path 2424" d="M43,17h1.032v1.032H43Z" transform="translate(-21.323 -8.742)" fill="#00395e"/>
      <path id="Path_2425" data-name="Path 2425" d="M43,29h1.032v1.032H43Z" transform="translate(-21.323 -14.548)" fill="#00395e"/>
      <path id="Path_2426" data-name="Path 2426" d="M43,25h1.032v1.032H43Z" transform="translate(-21.323 -12.613)" fill="#00395e"/>
      <path id="Path_2427" data-name="Path 2427" d="M43,21h1.032v1.032H43Z" transform="translate(-21.323 -10.677)" fill="#00395e"/>
      <path id="Path_2428" data-name="Path 2428" d="M47,17h1.032v1.032H47Z" transform="translate(-23.258 -8.742)" fill="#00395e"/>
      <path id="Path_2429" data-name="Path 2429" d="M47,21h1.032v1.032H47Z" transform="translate(-23.258 -10.677)" fill="#00395e"/>
      <path id="Path_2430" data-name="Path 2430" d="M47,25h1.032v1.032H47Z" transform="translate(-23.258 -12.613)" fill="#00395e"/>
      <path id="Path_2431" data-name="Path 2431" d="M47,29h1.032v1.032H47Z" transform="translate(-23.258 -14.548)" fill="#00395e"/>
      <path id="Path_2432" data-name="Path 2432" d="M51,17h1.032v1.032H51Z" transform="translate(-25.194 -8.742)" fill="#00395e"/>
      <path id="Path_2433" data-name="Path 2433" d="M51,25h1.032v1.032H51Z" transform="translate(-25.194 -12.613)" fill="#00395e"/>
      <path id="Path_2434" data-name="Path 2434" d="M51,21h1.032v1.032H51Z" transform="translate(-25.194 -10.677)" fill="#00395e"/>
      <path id="Path_2435" data-name="Path 2435" d="M51,29h1.032v1.032H51Z" transform="translate(-25.194 -14.548)" fill="#00395e"/>
      <path id="Path_2436" data-name="Path 2436" d="M11,29h1.032v1.032H11Z" transform="translate(-5.839 -14.548)" fill="#00395e"/>
      <path id="Path_2437" data-name="Path 2437" d="M11,21h1.032v1.032H11Z" transform="translate(-5.839 -10.677)" fill="#00395e"/>
      <path id="Path_2438" data-name="Path 2438" d="M11,17h1.032v1.032H11Z" transform="translate(-5.839 -8.742)" fill="#00395e"/>
      <path id="Path_2439" data-name="Path 2439" d="M11,25h1.032v1.032H11Z" transform="translate(-5.839 -12.613)" fill="#00395e"/>
      <path id="Path_2440" data-name="Path 2440" d="M15,29h1.032v1.032H15Z" transform="translate(-7.774 -14.548)" fill="#00395e"/>
      <path id="Path_2441" data-name="Path 2441" d="M15,25h1.032v1.032H15Z" transform="translate(-7.774 -12.613)" fill="#00395e"/>
      <path id="Path_2442" data-name="Path 2442" d="M15,21h1.032v1.032H15Z" transform="translate(-7.774 -10.677)" fill="#00395e"/>
      <path id="Path_2443" data-name="Path 2443" d="M15,17h1.032v1.032H15Z" transform="translate(-7.774 -8.742)" fill="#00395e"/>
      <path id="Path_2444" data-name="Path 2444" d="M19,25h1.032v1.032H19Z" transform="translate(-9.71 -12.613)" fill="#00395e"/>
      <path id="Path_2445" data-name="Path 2445" d="M19,29h1.032v1.032H19Z" transform="translate(-9.71 -14.548)" fill="#00395e"/>
      <path id="Path_2446" data-name="Path 2446" d="M19,21h1.032v1.032H19Z" transform="translate(-9.71 -10.677)" fill="#00395e"/>
      <path id="Path_2447" data-name="Path 2447" d="M19,17h1.032v1.032H19Z" transform="translate(-9.71 -8.742)" fill="#00395e"/>
    </g>
  </g>
</svg>
