<svg xmlns="http://www.w3.org/2000/svg" width="16" height="16" viewBox="0 0 16 16">
  <path id="icon-our-phone" d="M10.581,12.659V4.179a.135.135,0,0,0-.135-.135H6.377a.136.136,0,0,0-.135.135v8.479a.136.136,0,0,0,.135.135h4.069A.135.135,0,0,0,10.581,12.659Zm.5-8.479v8.479a.636.636,0,0,1-.635.635H6.377a.636.636,0,0,1-.635-.635V4.179a.636.636,0,0,1,.635-.635h4.069A.636.636,0,0,1,11.081,4.179Zm-2.67,12.24a8,8,0,1,1,8-8A8.009,8.009,0,0,1,8.411,16.419Zm.343-4.8a.25.25,0,1,1,0,.5H8.068a.25.25,0,1,1,0-.5Z" transform="translate(-0.411 -0.419)" fill="#00395e" fill-rule="evenodd"/>
</svg>
