<svg xmlns="http://www.w3.org/2000/svg" xmlns:xlink="http://www.w3.org/1999/xlink" width="40" height="40" viewBox="0 0 40 40">
  <defs>
    <clipPath id="clip-path">
      <rect id="Rectangle_2982" data-name="Rectangle 2982" width="40" height="40" transform="translate(280 610)" fill="#007bc6" stroke="#707070" stroke-width="1"/>
    </clipPath>
  </defs>
  <g id="icon-policy-1" transform="translate(-280 -610)" clip-path="url(#clip-path)">
    <g id="surface1" transform="translate(282.969 610)">
      <path id="Path_2386" data-name="Path 2386" d="M34.022,10.853v-.031c-.017-.384-.029-.791-.036-1.243a4.239,4.239,0,0,0-3.992-4.153A16.451,16.451,0,0,1,18.8.706L18.771.682a2.56,2.56,0,0,0-3.479,0l-.026.025a16.452,16.452,0,0,1-11.2,4.72A4.239,4.239,0,0,0,.078,9.579c-.007.449-.019.856-.036,1.243l0,.072c-.089,4.69-.2,10.526,1.752,15.824a20.143,20.143,0,0,0,4.832,7.527,25.28,25.28,0,0,0,9.457,5.594,2.924,2.924,0,0,0,.388.106,2.863,2.863,0,0,0,1.125,0,2.927,2.927,0,0,0,.389-.106,25.3,25.3,0,0,0,9.447-5.6,20.172,20.172,0,0,0,4.832-7.529C34.222,21.4,34.112,15.551,34.022,10.853ZM30.06,25.9C28,31.484,23.8,35.318,17.209,37.622a.6.6,0,0,1-.074.02.527.527,0,0,1-.206,0,.594.594,0,0,1-.074-.02c-6.6-2.3-10.8-6.132-12.86-11.716-1.8-4.883-1.7-10.241-1.608-14.967v-.026c.018-.406.031-.832.037-1.3A1.884,1.884,0,0,1,4.2,7.769a20.594,20.594,0,0,0,6.99-1.537,18.286,18.286,0,0,0,5.7-3.827.217.217,0,0,1,.291,0,18.293,18.293,0,0,0,5.7,3.827,20.594,20.594,0,0,0,6.99,1.537,1.884,1.884,0,0,1,1.776,1.844c.007.47.019.9.038,1.3C31.766,15.645,31.865,21.007,30.06,25.9Zm0,0" fill="#007bc6"/>
      <path id="Path_2387" data-name="Path 2387" d="M17.031,10.032A9.969,9.969,0,1,0,27,20,9.98,9.98,0,0,0,17.031,10.032Zm0,17.59A7.621,7.621,0,1,1,24.652,20,7.63,7.63,0,0,1,17.031,27.622Zm0,0" fill="#007bc6"/>
      <path id="Path_2388" data-name="Path 2388" d="M19.9,16.906l-4.63,4.63-1.257-1.257a1.174,1.174,0,0,0-1.66,1.66l2.087,2.087a1.174,1.174,0,0,0,1.66,0l5.46-5.46a1.174,1.174,0,0,0-1.66-1.66Zm0,0" fill="#007bc6"/>
    </g>
  </g>
</svg>
