<svg xmlns="http://www.w3.org/2000/svg" xmlns:xlink="http://www.w3.org/1999/xlink" width="40" height="40" viewBox="0 0 40 40">
  <defs>
    <clipPath id="clip-path">
      <rect id="Rectangle_2996" data-name="Rectangle 2996" width="40" height="40" transform="translate(1000 924)" fill="#007bc6" stroke="#707070" stroke-width="1"/>
    </clipPath>
  </defs>
  <g id="icon-policy-6" transform="translate(-1000 -924)" clip-path="url(#clip-path)">
    <g id="worldwide" transform="translate(1000 924)">
      <path id="Path_2396" data-name="Path 2396" d="M20,9.642A10.447,10.447,0,0,0,9.493,19.91a10.211,10.211,0,0,0,3.021,7.356,10.514,10.514,0,0,0,7.4,3.089H20A10.446,10.446,0,0,0,30.507,20.086a10.211,10.211,0,0,0-3.021-7.355,10.514,10.514,0,0,0-7.4-3.089H20Zm-2.21,9.186a12.846,12.846,0,0,1,2.273-6.1,12.839,12.839,0,0,1,2.167,6.142Zm4.416,2.381a12.847,12.847,0,0,1-2.269,6.064,12.84,12.84,0,0,1-2.164-6.1Zm-4.7-8.84a15.168,15.168,0,0,0-2.067,6.439l-3.506-.029A8.081,8.081,0,0,1,17.5,12.369Zm-5.589,8.754,3.505.029a15.161,15.161,0,0,0,1.956,6.438,8.15,8.15,0,0,1-3.2-1.981,7.9,7.9,0,0,1-2.256-4.487Zm10.578,6.506a15.17,15.17,0,0,0,2.063-6.4l3.505.029a8.083,8.083,0,0,1-5.568,6.371Zm5.6-8.714-3.509-.029a15.162,15.162,0,0,0-1.958-6.478,8.151,8.151,0,0,1,3.2,1.981,7.9,7.9,0,0,1,2.262,4.526Z" fill="#007bc6"/>
      <path id="Path_2397" data-name="Path 2397" d="M39.726,23.989l-2.5-2.977a1.172,1.172,0,0,0-1.509-.246l-3.3,2.018a1.172,1.172,0,0,0,1.223,2l1.049-.641a16.07,16.07,0,0,1-5.413,8.2,14.373,14.373,0,0,1-13.409,2.613,15.762,15.762,0,0,1-7.184-4.585A15.6,15.6,0,0,1,5.117,23.3a1.172,1.172,0,1,0-2.291.493,17.9,17.9,0,0,0,12.342,13.4,16.62,16.62,0,0,0,4.982.765,16.793,16.793,0,0,0,10.609-3.8,18.373,18.373,0,0,0,6.28-9.723L37.93,25.5a1.172,1.172,0,1,0,1.8-1.507Z" fill="#007bc6"/>
      <path id="Path_2398" data-name="Path 2398" d="M3.671,19.491a1.168,1.168,0,0,0,.611-.172l3.3-2.018a1.172,1.172,0,1,0-1.223-2l-1.081.661A15.749,15.749,0,0,1,9.849,8.391a14.852,14.852,0,0,1,7.22-3.714,14.564,14.564,0,0,1,8.049.666,15.5,15.5,0,0,1,9.775,11.3,1.172,1.172,0,1,0,2.291-.495,17.841,17.841,0,0,0-11.233-13,16.9,16.9,0,0,0-9.342-.774,17.193,17.193,0,0,0-8.36,4.3,18.411,18.411,0,0,0-4.02,5.409,17.874,17.874,0,0,0-1.285,3.546l-.876-1.043A1.172,1.172,0,1,0,.274,16.1l2.5,2.977a1.171,1.171,0,0,0,.9.419Z" fill="#007bc6"/>
    </g>
  </g>
</svg>
