<svg xmlns="http://www.w3.org/2000/svg" xmlns:xlink="http://www.w3.org/1999/xlink" width="80" height="80" viewBox="0 0 80 80">
  <defs>
    <clipPath id="clip-path">
      <rect id="Rectangle_3112" data-name="Rectangle 3112" width="80" height="80" transform="translate(1514 1230)" fill="#007bc6"/>
    </clipPath>
  </defs>
  <g id="icon-supcate-2" transform="translate(-1514 -1230)" clip-path="url(#clip-path)">
    <g id="delivery-box" transform="translate(1514 1230.003)">
      <g id="Group_498" data-name="Group 498" transform="translate(33.333 33.327)">
        <g id="Group_497" data-name="Group 497">
          <g id="Group_496" data-name="Group 496">
            <path id="Path_3989" data-name="Path 3989" d="M24.536,56.669c-.09,0-.187,0-.277-.01a3.536,3.536,0,0,1-2.58-1.44L17.653,49.7a1.439,1.439,0,0,0-.3-.3l-5.907-4.35a3.542,3.542,0,0,1-.4-5.36,3.659,3.659,0,0,1,4.093-.77l4.333,1.893,9-9.7.78-1.98-.78,1.473L12.72,22.269a3.713,3.713,0,0,1-1.837-2.76,3.667,3.667,0,0,1,1.053-3.06,3.3,3.3,0,0,1,3.033-.89l22.9,4.85a.355.355,0,0,0,.35-.1l8.213-8.727a5.888,5.888,0,0,1,4.213-1.57,5.857,5.857,0,0,1,4.49,1.527,6.3,6.3,0,0,1,1.53,4.49,5.9,5.9,0,0,1-1.573,4.217l-8.747,8.247a.356.356,0,0,0-.11.347L51.5,52.009a3.287,3.287,0,0,1-.877,3.083,3.607,3.607,0,0,1-3.047,1.057,3.663,3.663,0,0,1-2.713-1.733L36.1,38.206l-1.64-1.217,1.137,1.22-9.68,9,1.893,4.34a3.671,3.671,0,0,1-.77,4.09,3.554,3.554,0,0,1-2.5,1.033Zm11.3-21.89a3.687,3.687,0,0,1,3.15,1.757l8.767,16.21,1.7,1.163-1.18-1.177L42.993,29.589a3.683,3.683,0,0,1,1.077-3.54l8.74-8.237a2.878,2.878,0,0,0,.523-1.84,3.243,3.243,0,0,0-.553-2.083,3.1,3.1,0,0,0-2.083-.553,2.842,2.842,0,0,0-1.833.523l-8.21,8.72a3.707,3.707,0,0,1-3.487,1.08l-22.9-4.85L13.5,20.786l.78-1.473,15.746,8.333a3.732,3.732,0,0,1,1.83,2.69,3.688,3.688,0,0,1-.947,3.03L21.1,43.933a1.657,1.657,0,0,1-1.887.393L13.8,41.959a.365.365,0,0,0-.4.073l5.937,4.67a4.772,4.772,0,0,1,1.01,1.013l4.033,5.53c.41-.08.44-.243.377-.38l-2.363-5.42a1.666,1.666,0,0,1,.39-1.887l10.543-9.8a3.7,3.7,0,0,1,2.507-.98Zm18.12-15.753h.033Z" transform="translate(-10 -9.999)" fill="#007bc6"/>
          </g>
        </g>
      </g>
      <g id="Group_501" data-name="Group 501" transform="translate(31.687 15.831)">
        <g id="Group_500" data-name="Group 500">
          <g id="Group_499" data-name="Group 499">
            <path id="Path_3990" data-name="Path 3990" d="M11.172,23.917a1.667,1.667,0,0,1-.747-3.157L42.072,4.927a1.669,1.669,0,0,1,2.413,1.49V20.584a1.667,1.667,0,1,1-3.333,0V9.114L11.916,23.74a1.646,1.646,0,0,1-.743.177Z" transform="translate(-9.506 -4.75)" fill="#007bc6"/>
          </g>
        </g>
      </g>
      <g id="Group_504" data-name="Group 504" transform="translate(0 15.833)">
        <g id="Group_503" data-name="Group 503">
          <g id="Group_502" data-name="Group 502">
            <path id="Path_3991" data-name="Path 3991" d="M28.65,53.915a1.65,1.65,0,0,1-.81-.21l-26.983-15A1.668,1.668,0,0,1,0,37.248V6.415a1.666,1.666,0,0,1,2.41-1.49L34.056,20.759a1.667,1.667,0,0,1-1.49,2.983L3.333,9.112V36.268L29.46,50.792a1.667,1.667,0,0,1-.81,3.123Z" transform="translate(0 -4.75)" fill="#007bc6"/>
          </g>
        </g>
      </g>
      <g id="Group_507" data-name="Group 507" transform="translate(0.001)">
        <g id="Group_506" data-name="Group 506">
          <g id="Group_505" data-name="Group 505">
            <path id="Path_3992" data-name="Path 3992" d="M65,19.165a1.68,1.68,0,0,1-.747-.177L33.313,3.529l-30.9,15.46A1.667,1.667,0,1,1,.92,16.009L32.566.175a1.673,1.673,0,0,1,1.49,0L65.742,16.009A1.666,1.666,0,0,1,65,19.165Z" transform="translate(0 0)" fill="#007bc6"/>
          </g>
        </g>
      </g>
      <g id="Group_510" data-name="Group 510" transform="translate(15.143 7.571)">
        <g id="Group_509" data-name="Group 509">
          <g id="Group_508" data-name="Group 508">
            <path id="Path_3993" data-name="Path 3993" d="M6.21,33.829a1.667,1.667,0,0,1-1.667-1.667V19.769a1.669,1.669,0,0,1,.92-1.49L37.109,2.446A1.667,1.667,0,1,1,38.6,5.429L7.876,20.8V32.165A1.664,1.664,0,0,1,6.21,33.829Z" transform="translate(-4.543 -2.272)" fill="#007bc6"/>
          </g>
        </g>
      </g>
    </g>
  </g>
</svg>
