<svg xmlns="http://www.w3.org/2000/svg" xmlns:xlink="http://www.w3.org/1999/xlink" width="60" height="60" viewBox="0 0 60 60">
  <defs>
    <clipPath id="clip-path">
      <rect id="Rectangle_172" data-name="Rectangle 172" width="60" height="60" transform="translate(255 3950)" fill="#007bc6" stroke="#707070" stroke-width="1"/>
    </clipPath>
  </defs>
  <g id="icon--cus-1" transform="translate(-255 -3950)" clip-path="url(#clip-path)">
    <g id="call-center" transform="translate(255 3950)">
      <path id="Path_136" data-name="Path 136" d="M58.242,20.711H52.4a22.469,22.469,0,0,0-44.8,0H1.758A1.758,1.758,0,0,0,0,22.469V41.3a1.758,1.758,0,0,0,1.758,1.758H9.289A1.758,1.758,0,0,0,11.047,41.3V22.469a18.953,18.953,0,1,1,37.906,0V41.3A11.435,11.435,0,0,1,37.531,52.719h-2.3a5.523,5.523,0,1,0,0,3.516h2.3a14.959,14.959,0,0,0,14.834-13.18h5.877A1.758,1.758,0,0,0,60,41.3V22.469a1.758,1.758,0,0,0-1.758-1.758ZM7.531,39.539H3.516V24.227H7.531ZM30,56.484a2.008,2.008,0,1,1,2.008-2.008A2.01,2.01,0,0,1,30,56.484ZM56.484,39.539H52.469V24.227h4.016Z" fill="#007bc6"/>
      <path id="Path_137" data-name="Path 137" d="M42.911,20.845A1.758,1.758,0,0,0,41,21.226l-8.09,8.087a6.362,6.362,0,0,0-1.839,4.453,1.758,1.758,0,0,0,1.758,1.758h7.656v3.891a1.758,1.758,0,0,0,3.516,0V35.523h.125a1.758,1.758,0,1,0,0-3.516H44V22.469a1.758,1.758,0,0,0-1.085-1.624ZM40.481,32.008H35.2a2.775,2.775,0,0,1,.19-.213l5.086-5.084Z" fill="#007bc6"/>
      <path id="Path_138" data-name="Path 138" d="M27.992,39.414a1.758,1.758,0,0,0-1.758-1.758H19.2a2.726,2.726,0,0,1,.19-.213l8.087-8.083a1.758,1.758,0,0,0,.515-1.243v-.941a6.465,6.465,0,0,0-12.93,0v0a1.758,1.758,0,1,0,3.516,0,2.949,2.949,0,0,1,5.9,0v.213L16.9,34.961a6.361,6.361,0,0,0-1.839,4.453,1.758,1.758,0,0,0,1.758,1.758h9.414a1.758,1.758,0,0,0,1.758-1.758Z" fill="#007bc6"/>
    </g>
  </g>
</svg>
