<svg xmlns="http://www.w3.org/2000/svg" xmlns:xlink="http://www.w3.org/1999/xlink" width="80" height="80" viewBox="0 0 80 80">
  <defs>
    <clipPath id="clip-path">
      <rect id="Rectangle_3111" data-name="Rectangle 3111" width="80" height="80" transform="translate(1417 1230)" fill="#007bc6"/>
    </clipPath>
  </defs>
  <g id="icon-supcate-3" transform="translate(-1417 -1230)" clip-path="url(#clip-path)">
    <g id="maintenance" transform="translate(1418.065 1230)">
      <path id="Path_3994" data-name="Path 3994" d="M38.448,15A23.448,23.448,0,1,0,61.9,38.448,23.448,23.448,0,0,0,38.448,15Zm-6.9,42.931V47.619L31,47.206a12.392,12.392,0,0,1,.552-20.229V39.3l6.9,3.448,6.9-3.448V26.977a12.392,12.392,0,0,1,.552,20.23l-.552.414V57.932a20.308,20.308,0,0,1-13.793,0Zm16.552-1.2V48.978a15.152,15.152,0,0,0-3.586-25.586l-1.931-.844V37.6l-4.138,2.069L34.31,37.6V22.548l-1.931.844a15.152,15.152,0,0,0-3.586,25.586v7.754a20.69,20.69,0,1,1,19.31,0Z" transform="translate(1.019 1.552)" fill="#007bc6"/>
      <path id="Path_3995" data-name="Path 3995" d="M77.336,43a34.553,34.553,0,0,0-.988-8.189l5.972-3.448L72.666,14.639l-5.977,3.448a34.466,34.466,0,0,0-14.181-8.2V3H33.2V9.887a34.466,34.466,0,0,0-14.181,8.2l-5.977-3.448L3.386,31.366l5.972,3.448a34.445,34.445,0,0,0,0,16.378L3.386,54.64l9.655,16.724,5.977-3.448a34.466,34.466,0,0,0,14.181,8.2V83h19.31V76.113a34.466,34.466,0,0,0,14.181-8.2l5.977,3.448,9.655-16.724-5.972-3.448A34.552,34.552,0,0,0,77.336,43Zm1.217,12.648-6.9,11.945-5.423-3.131-.749.76a31.7,31.7,0,0,1-14.7,8.5l-1.034.268v6.25H35.957v-6.25l-1.034-.268a31.7,31.7,0,0,1-14.7-8.5l-.749-.76-5.423,3.131-6.9-11.945,5.418-3.131-.284-1.029a31.673,31.673,0,0,1,0-16.977l.284-1.029L7.154,30.352l6.9-11.945,5.423,3.131.749-.76a31.7,31.7,0,0,1,14.7-8.5l1.034-.268V5.759H49.75v6.25l1.034.268a31.7,31.7,0,0,1,14.7,8.5l.749.76,5.423-3.131,6.9,11.945-5.419,3.131.284,1.029a31.673,31.673,0,0,1,0,16.977l-.284,1.029Z" transform="translate(-3.386 -3)" fill="#007bc6"/>
    </g>
  </g>
</svg>
