<svg xmlns="http://www.w3.org/2000/svg" xmlns:xlink="http://www.w3.org/1999/xlink" width="20" height="20" viewBox="0 0 20 20">
  <defs>
    <clipPath id="clip-path">
      <rect id="Rectangle_2942" data-name="Rectangle 2942" width="20" height="20" transform="translate(1409 2781)" fill="#007bc6" stroke="#707070" stroke-width="1"/>
    </clipPath>
  </defs>
  <g id="icon-solu-4" transform="translate(-1409 -2781)" clip-path="url(#clip-path)">
    <g id="technics" transform="translate(1409 2781)">
      <g id="Group_413" data-name="Group 413">
        <g id="Group_412" data-name="Group 412">
          <path id="Path_2384" data-name="Path 2384" d="M19.142,15.015c-1.79-1.79-1.673-1.677-1.723-1.714L12.681,9.8l1.838-1.838A4.1,4.1,0,0,0,19.6,2.334a.586.586,0,0,0-.943-.162L17.14,3.687a.586.586,0,0,1-.828-.828l1.515-1.515A.586.586,0,0,0,17.665.4a4.1,4.1,0,0,0-5.631,5.078L9.914,7.6c-.432-.336.138.238-3.927-4.073L6.413,3.1A.586.586,0,0,0,6.3,2.184L3.163.3A2.086,2.086,0,0,0,.3,3.164L2.183,6.3a.586.586,0,0,0,.916.113l.4-.4C7.546,10.3,7.013,9.717,7.333,10.128c.008.01.016.018.024.027l-1.88,1.88A4.1,4.1,0,0,0,.4,17.666a.586.586,0,0,0,.943.162l1.515-1.515a.586.586,0,1,1,.828.828L2.17,18.656a.586.586,0,0,0,.162.943,4.1,4.1,0,0,0,5.631-5.078l1.605-1.605,3.738,4.542c.028.034-.065-.062,1.606,1.61a3.144,3.144,0,0,0,2.213.924,2.8,2.8,0,0,0,1.645-.519A2.931,2.931,0,0,0,19.142,15.015ZM3.94,4.769a.586.586,0,0,0-.84-.012l-.3.3-1.5-2.494A.915.915,0,0,1,2.56,1.306L5.054,2.8l-.3.3a.586.586,0,0,0-.012.816C9.415,8.869,8.681,8.124,9.079,8.434l-.889.889C7.883,8.928,8.6,9.707,3.94,4.769Zm2.917,9.2a.586.586,0,0,0-.114.667A2.932,2.932,0,0,1,3.685,18.8l.829-.829a1.757,1.757,0,0,0-2.485-2.485l-.829.829a2.93,2.93,0,0,1,4.163-3.058.586.586,0,0,0,.667-.114l7.11-7.109a.586.586,0,0,0,.114-.667A2.93,2.93,0,0,1,16.311,1.2l-.829.829a1.757,1.757,0,1,0,2.485,2.485l.829-.829a2.93,2.93,0,0,1-4.163,3.058.586.586,0,0,0-.667.114Zm3.54-1.883,1.446-1.446,1.473,1.088-1.76,1.76C10.36,12.034,10.434,12.121,10.4,12.086Zm7.687,6.437a1.842,1.842,0,0,1-2.345-.283l-1.548-1.548L12.3,14.4l1.966-1.966,2.418,1.786,1.626,1.626A1.758,1.758,0,0,1,18.085,18.522Z" fill="#007bc6"/>
        </g>
      </g>
      <g id="Group_415" data-name="Group 415">
        <g id="Group_414" data-name="Group 414">
          <path id="Path_2385" data-name="Path 2385" d="M17.475,16.57l-2.343-2.343a.586.586,0,1,0-.828.828L16.647,17.4a.586.586,0,0,0,.828-.828Z" fill="#007bc6"/>
        </g>
      </g>
    </g>
  </g>
</svg>
