<svg xmlns="http://www.w3.org/2000/svg" xmlns:xlink="http://www.w3.org/1999/xlink" width="40" height="40" viewBox="0 0 40 40">
  <defs>
    <clipPath id="clip-path">
      <rect id="Rectangle_2998" data-name="Rectangle 2998" width="40" height="40" transform="translate(1011 1216)" fill="#007bc6" stroke="#707070" stroke-width="1"/>
    </clipPath>
  </defs>
  <g id="icon-war-1" transform="translate(-1011 -1216)" clip-path="url(#clip-path)">
    <g id="solutions" transform="translate(1011 1216)">
      <path id="Path_2399" data-name="Path 2399" d="M2.344,20A17.655,17.655,0,0,1,30.093,5.515H27.822a1.172,1.172,0,1,0,0,2.344h5.492a1.172,1.172,0,0,0,1.172-1.172V1.195a1.172,1.172,0,0,0-2.344,0V4.112A20,20,0,0,0,2.682,30a1.172,1.172,0,0,0,2.029-1.174A17.645,17.645,0,0,1,2.344,20Z" fill="#007bc6"/>
      <path id="Path_2400" data-name="Path 2400" d="M37.318,10a1.172,1.172,0,0,0-2.029,1.174A17.653,17.653,0,0,1,9.908,34.485h2.27a1.172,1.172,0,0,0,0-2.344H6.686a1.172,1.172,0,0,0-1.172,1.172v5.492a1.172,1.172,0,1,0,2.344,0v-2.92A19.995,19.995,0,0,0,37.318,10Z" fill="#007bc6"/>
      <path id="Path_2401" data-name="Path 2401" d="M30.423,17.646a1.172,1.172,0,0,0-.117-.889L27.962,12.7a1.172,1.172,0,0,0-1.6-.429l-1.334.77a8.5,8.5,0,0,0-1.512-.876V10.625a1.172,1.172,0,0,0-1.172-1.172H17.656a1.172,1.172,0,0,0-1.172,1.172v1.537a8.5,8.5,0,0,0-1.512.876l-1.334-.77a1.172,1.172,0,0,0-1.6.429l-2.344,4.06a1.172,1.172,0,0,0,.429,1.6l1.328.766a8.663,8.663,0,0,0,0,1.753l-1.328.766a1.172,1.172,0,0,0-.429,1.6l2.344,4.06a1.172,1.172,0,0,0,1.6.429l1.334-.77a8.491,8.491,0,0,0,1.512.876v1.538a1.172,1.172,0,0,0,1.172,1.172h4.688a1.172,1.172,0,0,0,1.172-1.172V27.838a8.5,8.5,0,0,0,1.512-.876l1.334.77a1.172,1.172,0,0,0,1.6-.429l2.344-4.06a1.172,1.172,0,0,0-.429-1.6l-1.328-.766a8.663,8.663,0,0,0,0-1.753l1.328-.766a1.172,1.172,0,0,0,.546-.712Zm-4.3,1.1a6.314,6.314,0,0,1,0,2.515,1.172,1.172,0,0,0,.562,1.249l1,.58-1.172,2.03-1.013-.585a1.172,1.172,0,0,0-1.364.138,6.2,6.2,0,0,1-2.168,1.256,1.172,1.172,0,0,0-.8,1.112V28.2H18.828V27.038a1.172,1.172,0,0,0-.8-1.112,6.2,6.2,0,0,1-2.168-1.256,1.172,1.172,0,0,0-1.364-.138l-1.013.585-1.172-2.03,1-.58a1.172,1.172,0,0,0,.562-1.249,6.318,6.318,0,0,1,0-2.515,1.172,1.172,0,0,0-.562-1.249l-1-.58,1.172-2.03,1.013.585a1.172,1.172,0,0,0,1.364-.138,6.2,6.2,0,0,1,2.168-1.256,1.172,1.172,0,0,0,.8-1.112V11.8h2.344v1.165a1.172,1.172,0,0,0,.8,1.112,6.2,6.2,0,0,1,2.168,1.256,1.172,1.172,0,0,0,1.364.138l1.013-.585,1.172,2.03-1,.58A1.172,1.172,0,0,0,26.124,18.742Z" fill="#007bc6"/>
      <path id="Path_2402" data-name="Path 2402" d="M20,15.7A4.3,4.3,0,1,0,24.3,20,4.3,4.3,0,0,0,20,15.7Zm0,6.25A1.953,1.953,0,1,1,21.953,20,1.955,1.955,0,0,1,20,21.953Z" fill="#007bc6"/>
    </g>
  </g>
</svg>
