<svg xmlns="http://www.w3.org/2000/svg" xmlns:xlink="http://www.w3.org/1999/xlink" width="30" height="30" viewBox="0 0 30 30">
  <defs>
    <clipPath id="clip-path">
      <rect id="Rectangle_165" data-name="Rectangle 165" width="30" height="30" transform="translate(1435 10585)" fill="#fff" stroke="#707070" stroke-width="1"/>
    </clipPath>
  </defs>
  <g id="icon-twitter" transform="translate(-1435 -10585)" clip-path="url(#clip-path)">
    <path id="_013-twitter" data-name="013-twitter" d="M9.435,24.41c11.321,0,17.512-9.379,17.512-17.512q0-.4-.017-.8A12.523,12.523,0,0,0,30,2.915a12.278,12.278,0,0,1-3.535.969A6.177,6.177,0,0,0,29.172.48a12.348,12.348,0,0,1-3.908,1.494A6.16,6.16,0,0,0,14.775,7.587,17.476,17.476,0,0,1,2.088,1.156,6.16,6.16,0,0,0,3.993,9.373,6.108,6.108,0,0,1,1.206,8.6c0,.026,0,.051,0,.079a6.157,6.157,0,0,0,4.938,6.034,6.147,6.147,0,0,1-2.78.106A6.162,6.162,0,0,0,9.113,19.1a12.348,12.348,0,0,1-7.645,2.635A12.55,12.55,0,0,1,0,21.646a17.424,17.424,0,0,0,9.435,2.765" transform="translate(1435 10587.78)" fill="#1da1f2"/>
  </g>
</svg>
