<svg xmlns="http://www.w3.org/2000/svg" xmlns:xlink="http://www.w3.org/1999/xlink" width="40" height="40" viewBox="0 0 40 40">
  <defs>
    <clipPath id="clip-path">
      <rect id="Rectangle_161" data-name="Rectangle 161" width="40" height="40" transform="translate(723 10576)" fill="#007bc6" stroke="#707070" stroke-width="1"/>
    </clipPath>
  </defs>
  <g id="icon-hotline" transform="translate(-723 -10576)" clip-path="url(#clip-path)">
    <g id="support" transform="translate(725.031 10576)">
      <g id="Group_152" data-name="Group 152" transform="translate(25.781 30.938)">
        <g id="Group_151" data-name="Group 151">
          <path id="Path_117" data-name="Path 117" d="M42.5,46.406a.781.781,0,1,0,.781.781A.782.782,0,0,0,42.5,46.406Z" transform="translate(-41.719 -46.406)" fill="#007bc6"/>
        </g>
      </g>
      <g id="Group_154" data-name="Group 154">
        <g id="Group_153" data-name="Group 153">
          <path id="Path_118" data-name="Path 118" d="M31.533,28.411,27.82,27.174l-1.333-2.666A8.557,8.557,0,0,0,28.8,19.981l.166-1h1.422a2.346,2.346,0,0,0,2.344-2.344V11.719a11.719,11.719,0,0,0-23.437,0v4.922a2.348,2.348,0,0,0,1.563,2.209v.916A2.346,2.346,0,0,0,13.2,22.109h.686a8.476,8.476,0,0,0,1.31,2.029c.111.127.226.25.344.37l-1.332,2.665L10.5,28.411A11.515,11.515,0,0,0,3.047,39.219.781.781,0,0,0,3.828,40H38.2a.781.781,0,0,0,.781-.781A11.515,11.515,0,0,0,31.533,28.411Zm-.361-11.771a.782.782,0,0,1-.781.781H29.2c.2-1.538.331-3.175.384-4.787,0-.045,0-.09,0-.134h1.585Zm-19.531.781a.782.782,0,0,1-.781-.781V12.5h1.586q0,.122.008.246v.008h0c.055,1.568.185,3.163.379,4.667H11.641ZM13.2,20.547a.782.782,0,0,1-.781-.781v-.781h.64l.166,1q.048.284.116.566Zm-.78-9.609H10.889a10.157,10.157,0,0,1,20.253,0H29.608a7.913,7.913,0,0,0-7.893-7.812h-1.4A7.913,7.913,0,0,0,12.423,10.938Zm7.893-6.25h1.4a6.353,6.353,0,0,1,6.332,6.36c0,.246,0,.46-.006.655,0,0,0,.005,0,.008l-.977-.14a12.554,12.554,0,0,1-7.058-3.529.782.782,0,0,0-.552-.229,7.068,7.068,0,0,0-5.434,2.571A6.351,6.351,0,0,1,20.316,4.688ZM14.964,20.547a44.653,44.653,0,0,1-.937-7.582l1.051-1.4a5.5,5.5,0,0,1,4.066-2.179,14.131,14.131,0,0,0,7.7,3.733l1.15.164c-.077,1.632-.234,3.269-.459,4.775v0c-.072.484-.128.8-.272,1.666a6.636,6.636,0,0,1-4.71,5.337,6.147,6.147,0,0,1-6.9-2.951h1.593a2.347,2.347,0,0,0,2.209,1.563h1.563a2.344,2.344,0,0,0,0-4.687H19.453a2.345,2.345,0,0,0-2.211,1.563Zm4.423,6.095a7.836,7.836,0,0,0,2.906.065l-1.38,1.46Zm.451,2.661-2.478,2.62a29.765,29.765,0,0,1-1.749-4.056l.931-1.861Zm5.518-3.561,1.063,2.126a29.758,29.758,0,0,1-1.749,4.057l-2.652-2.652Zm-6.685-4.414a.781.781,0,0,1,.781-.781h1.563a.781.781,0,0,1,0,1.563H19.453A.782.782,0,0,1,18.672,21.328ZM4.641,38.438a9.873,9.873,0,0,1,6.352-8.544l3.289-1.1A31.32,31.32,0,0,0,16.5,33.621l0,.008h0a31.327,31.327,0,0,0,2.138,3.266l.961,1.543Zm16.375-.7-1.06-1.7q-.018-.029-.038-.056a29.782,29.782,0,0,1-1.76-2.63l2.786-2.946,2.936,2.936a29.749,29.749,0,0,1-1.766,2.64C22.075,36.035,22.129,35.955,21.016,37.741Zm1.407.7.961-1.543A31.309,31.309,0,0,0,25.537,33.6l.011-.021v0a31.289,31.289,0,0,0,2.2-4.782l3.289,1.1a9.873,9.873,0,0,1,6.352,8.544H22.423Z" transform="translate(-3.047)" fill="#007bc6"/>
        </g>
      </g>
      <g id="Group_156" data-name="Group 156" transform="translate(28.526 32.429)">
        <g id="Group_155" data-name="Group 155">
          <path id="Path_119" data-name="Path 119" d="M49.306,51.49a7.8,7.8,0,0,0-2.212-2.685.781.781,0,0,0-.953,1.238,6.239,6.239,0,0,1,1.767,2.145.781.781,0,0,0,1.4-.7Z" transform="translate(-45.837 -48.643)" fill="#007bc6"/>
        </g>
      </g>
    </g>
  </g>
</svg>
