<svg xmlns="http://www.w3.org/2000/svg" width="42.881" height="105.936" viewBox="0 0 42.881 105.936">
  <path id="icon-arowlong-2" d="M1480.012,373.937a1.313,1.313,0,0,1-.467-.087c-2.935-1.12-5.929-2.215-8.9-3.256a1.314,1.314,0,0,1-.773-.722l-.1-.233a1.316,1.316,0,0,1-.09-.728,116.435,116.435,0,0,0,1.5-18.613,114.647,114.647,0,0,0-32.367-80.071,1.313,1.313,0,0,1,1.889-1.825,117.263,117.263,0,0,1,33.1,81.9,119.186,119.186,0,0,1-1.387,18.136c2.694.953,5.4,1.948,8.061,2.963a1.314,1.314,0,0,1-.469,2.541Z" transform="translate(-1438.445 -268)" fill="#fff"/>
</svg>
