<svg xmlns="http://www.w3.org/2000/svg" xmlns:xlink="http://www.w3.org/1999/xlink" width="60" height="60" viewBox="0 0 60 60">
  <defs>
    <clipPath id="clip-path">
      <rect id="Rectangle_171" data-name="Rectangle 171" width="60" height="60" transform="translate(596 3950)" fill="#007bc6" stroke="#707070" stroke-width="1"/>
    </clipPath>
  </defs>
  <g id="icon--cus-2" transform="translate(-596 -3950)" clip-path="url(#clip-path)">
    <g id="light-bulb" transform="translate(596 3950)">
      <path id="Path_139" data-name="Path 139" d="M44.5,5.994a20.5,20.5,0,0,0-32.74,23.858,20.689,20.689,0,0,0,6.043,7.1,5.27,5.27,0,0,1,2.237,4.224v1.011h-.586a1.758,1.758,0,0,0,0,3.516h.586v3.633h-.586a1.758,1.758,0,0,0,0,3.516h.586v1.875A5.279,5.279,0,0,0,25.313,60h9.375a5.279,5.279,0,0,0,5.273-5.273V52.852h.586a1.758,1.758,0,0,0,0-3.516h-.586V45.7h.586a1.758,1.758,0,0,0,0-3.516h-.586V41.177A5.27,5.27,0,0,1,42.2,36.953a20.454,20.454,0,0,0,8.31-16.471A20.331,20.331,0,0,0,44.5,5.994ZM36.445,54.727a1.76,1.76,0,0,1-1.758,1.758H25.313a1.76,1.76,0,0,1-1.758-1.758V52.852H36.445Zm0-5.391H23.555V45.7H36.445Zm3.66-15.209a8.75,8.75,0,0,0-3.66,7.049v1.011H23.555V41.177a8.75,8.75,0,0,0-3.66-7.049,16.831,16.831,0,0,1-6.887-13.645,16.992,16.992,0,0,1,33.984,0A16.831,16.831,0,0,1,40.105,34.127Z" fill="#007bc6"/>
      <path id="Path_140" data-name="Path 140" d="M40.547,18.75H38.612a8.741,8.741,0,0,0-1.283-3.086L38.7,14.293a1.758,1.758,0,1,0-2.486-2.486l-1.372,1.372A8.736,8.736,0,0,0,31.758,11.9V9.961a1.758,1.758,0,0,0-3.516,0V11.9a8.741,8.741,0,0,0-3.086,1.283l-1.372-1.372A1.758,1.758,0,1,0,21.3,14.293l1.372,1.372a8.736,8.736,0,0,0-1.283,3.086H19.453a1.758,1.758,0,0,0,0,3.516h1.935a8.741,8.741,0,0,0,1.283,3.086L21.3,26.723a1.758,1.758,0,1,0,2.486,2.486l1.372-1.372a8.736,8.736,0,0,0,3.086,1.283v1.935a1.758,1.758,0,1,0,3.516,0V29.12a8.741,8.741,0,0,0,3.086-1.283l1.372,1.372A1.758,1.758,0,0,0,38.7,26.723l-1.372-1.372a8.736,8.736,0,0,0,1.283-3.086h1.935a1.758,1.758,0,0,0,0-3.516ZM30,25.781a5.273,5.273,0,1,1,5.273-5.273A5.279,5.279,0,0,1,30,25.781Z" fill="#007bc6"/>
      <circle id="Ellipse_46" data-name="Ellipse 46" cx="1.758" cy="1.758" r="1.758" transform="translate(28.242 18.75)" fill="#007bc6"/>
    </g>
  </g>
</svg>
