<svg xmlns="http://www.w3.org/2000/svg" xmlns:xlink="http://www.w3.org/1999/xlink" width="80" height="80" viewBox="0 0 80 80">
  <defs>
    <clipPath id="clip-path">
      <rect id="Rectangle_3113" data-name="Rectangle 3113" width="80" height="80" transform="translate(1026 1215)" fill="#007bc6" stroke="#707070" stroke-width="1"/>
    </clipPath>
  </defs>
  <g id="icon-supcate-1" transform="translate(-1026 -1215)" clip-path="url(#clip-path)">
    <g id="badge_1_" data-name="badge (1)" transform="translate(1035.981 1215)">
      <g id="Group_512" data-name="Group 512" transform="translate(0)">
        <g id="Group_511" data-name="Group 511">
          <path id="Path_3996" data-name="Path 3996" d="M179.718,117.092l-6.361-.924-2.845-5.766a1.581,1.581,0,0,0-2.835,0l-2.845,5.766-6.363.924a1.581,1.581,0,0,0-.878,2.7l4.6,4.487-1.087,6.336a1.572,1.572,0,0,0,2.294,1.66l5.69-2.985,5.69,2.985a1.581,1.581,0,0,0,2.3-1.66l-1.087-6.336,4.6-4.487a1.581,1.581,0,0,0-.878-2.7Zm-6.53,5.486a1.581,1.581,0,0,0-.455,1.4l.685,4-3.591-1.888a1.58,1.58,0,0,0-1.472.012l-3.591,1.888.687-4a1.581,1.581,0,0,0-.455-1.4l-2.9-2.833,4.015-.583a1.581,1.581,0,0,0,1.191-.864l1.795-3.639,1.795,3.639a1.58,1.58,0,0,0,1.191.864l4.016.573Z" transform="translate(-139.072 -89.987)" fill="#007bc6"/>
          <path id="Path_3997" data-name="Path 3997" d="M129.512,60.465a20.568,20.568,0,1,0,20.568,20.568A20.568,20.568,0,0,0,129.512,60.465Zm0,37.976A17.407,17.407,0,1,1,146.92,81.033,17.407,17.407,0,0,1,129.512,98.441Z" transform="translate(-99.494 -49.68)" fill="#007bc6"/>
          <path id="Path_3998" data-name="Path 3998" d="M114.928,35.615l-2.957,1.119c.46,1.217,1.033,2.731.836,3.337-.221.681-1.561,1.554-2.745,2.325a14.867,14.867,0,0,0-4.1,3.467,15.165,15.165,0,0,0-2.06,5.014c-.351,1.284-.783,2.882-1.343,3.289s-2.183.318-3.512.255a15.031,15.031,0,0,0-5.434.418,14.643,14.643,0,0,0-4.508,2.8c-1.108.9-2.366,1.911-3.122,1.911s-2.014-1.015-3.124-1.914a14.61,14.61,0,0,0-4.506-2.8,11.255,11.255,0,0,0-3.533-.476c-.652,0-1.289.03-1.9.06-1.319.063-2.959.141-3.5-.255s-.994-2.009-1.345-3.293a15,15,0,0,0-2.058-5.014,14.75,14.75,0,0,0-4.1-3.467c-1.182-.771-2.522-1.644-2.743-2.325-.2-.6.378-2.118.838-3.337a15.334,15.334,0,0,0,1.3-5.377A15.339,15.339,0,0,0,60,25.976c-.46-1.217-1.033-2.733-.838-3.337.221-.681,1.561-1.554,2.745-2.327a14.916,14.916,0,0,0,4.1-3.465,15.112,15.112,0,0,0,2.06-5.014c.351-1.284.783-2.882,1.343-3.289s2.183-.318,3.5-.255a15.1,15.1,0,0,0,5.444-.418,14.664,14.664,0,0,0,4.508-2.8c1.1-.9,2.357-1.913,3.114-1.913S87.993,4.174,89.1,5.074a14.64,14.64,0,0,0,4.508,2.8,15.24,15.24,0,0,0,5.444.418c1.319-.062,2.959-.139,3.5.255s.985,2,1.336,3.289a15,15,0,0,0,2.058,5.014,14.72,14.72,0,0,0,4.1,3.467c1.182.771,2.522,1.644,2.745,2.325.2.6-.378,2.12-.838,3.337a15.345,15.345,0,0,0-1.3,5.377,15.348,15.348,0,0,0,1.3,5.377l1.479-.558,1.479-.558a12.6,12.6,0,0,1-1.1-4.261,12.516,12.516,0,0,1,1.094-4.261c.732-1.932,1.426-3.771.887-5.43-.567-1.744-2.325-2.889-4.025-4a12.484,12.484,0,0,1-3.272-2.678A12.637,12.637,0,0,1,106.941,11c-.553-2.034-1.075-3.955-2.534-5.016s-3.418-.955-5.511-.857a12.646,12.646,0,0,1-4.311-.267,12.143,12.143,0,0,1-3.5-2.25C89.491,1.33,87.854,0,85.979,0s-3.512,1.33-5.11,2.617a12.133,12.133,0,0,1-3.5,2.248,12.489,12.489,0,0,1-4.311.267c-2.093-.1-4.071-.191-5.513.857s-1.981,2.985-2.534,5.017a12.511,12.511,0,0,1-1.565,3.983,12.207,12.207,0,0,1-3.272,2.678c-1.7,1.108-3.458,2.253-4.025,4-.539,1.66.154,3.491.887,5.432a12.637,12.637,0,0,1,1.094,4.259,12.536,12.536,0,0,1-1.094,4.261c-.732,1.932-1.426,3.772-.887,5.43.567,1.746,2.325,2.891,4.025,4a12.445,12.445,0,0,1,3.27,2.678,12.679,12.679,0,0,1,1.565,3.983,16.175,16.175,0,0,0,1.2,3.433l-6.4,16.375a1.58,1.58,0,0,0,1.66,2.144l8.956-1.071,5.85,6.86a1.581,1.581,0,0,0,2.677-.458l6.384-16.332a3.906,3.906,0,0,0,1.284,0L93,78.988a1.581,1.581,0,0,0,2.675.45l5.85-6.86,8.956,1.071a1.581,1.581,0,0,0,1.661-2.136l-6.406-16.378a16.285,16.285,0,0,0,1.2-3.433,12.429,12.429,0,0,1,1.565-3.983,12.232,12.232,0,0,1,3.272-2.678c1.7-1.108,3.46-2.253,4.025-4C116.345,39.384,115.653,37.554,114.928,35.615ZM76.964,75.386l-4.684-5.5a1.58,1.58,0,0,0-1.391-.543l-7.172.859L68.756,57.32a12.674,12.674,0,0,0,4.3.256c.58-.028,1.178-.056,1.756-.056a8.261,8.261,0,0,1,2.557.321,12.129,12.129,0,0,1,3.5,2.25c.527.423,1.054.85,1.595,1.229Zm31.276-5.179-7.171-.859a1.581,1.581,0,0,0-1.391.544l-4.686,5.5-5.5-14.064c.541-.383,1.071-.81,1.595-1.229a12.133,12.133,0,0,1,3.5-2.248A12.487,12.487,0,0,1,98.9,57.58a12.688,12.688,0,0,0,4.3-.256Z" transform="translate(-55.96)" fill="#007bc6"/>
        </g>
      </g>
    </g>
  </g>
</svg>
