<svg xmlns="http://www.w3.org/2000/svg" xmlns:xlink="http://www.w3.org/1999/xlink" width="20" height="20" viewBox="0 0 20 20">
  <defs>
    <clipPath id="clip-path">
      <rect id="Rectangle_2936" data-name="Rectangle 2936" width="20" height="20" transform="translate(855 2743)" fill="#007bc6" stroke="#707070" stroke-width="1"/>
    </clipPath>
  </defs>
  <g id="icon-solu-1" transform="translate(-855 -2743)" clip-path="url(#clip-path)">
    <g id="money" transform="translate(855 2743)">
      <path id="Path_2366" data-name="Path 2366" d="M17.063,2.937A9.989,9.989,0,1,0,2.937,17.063,9.989,9.989,0,1,0,17.063,2.937ZM10,18.828A8.828,8.828,0,1,1,18.828,10,8.838,8.838,0,0,1,10,18.828Z" fill="#007bc6"/>
      <path id="Path_2367" data-name="Path 2367" d="M9.523,1.906a7.617,7.617,0,1,0,7.617,7.617A7.626,7.626,0,0,0,9.523,1.906Zm0,14.063a6.445,6.445,0,1,1,6.445-6.445A6.453,6.453,0,0,1,9.523,15.969Z" transform="translate(0.477 0.477)" fill="#007bc6"/>
      <path id="Path_2368" data-name="Path 2368" d="M10.344,7.292a.586.586,0,0,0,1.172,0,2.161,2.161,0,0,0-.921-1.712A3.22,3.22,0,0,0,9.172,5V4.362A.586.586,0,0,0,8,4.362V5a3.22,3.22,0,0,0-1.423.585,2.161,2.161,0,0,0-.921,1.712A2.161,2.161,0,0,0,6.577,9,3.22,3.22,0,0,0,8,9.589V11.91c-.675-.165-1.172-.6-1.172-1.1a.586.586,0,1,0-1.172,0,2.161,2.161,0,0,0,.921,1.712A3.22,3.22,0,0,0,8,13.1v.639a.586.586,0,0,0,1.172,0V13.1a3.22,3.22,0,0,0,1.423-.585,2.161,2.161,0,0,0,.921-1.712A2.161,2.161,0,0,0,10.595,9.1a3.22,3.22,0,0,0-1.423-.585V6.19c.675.165,1.172.6,1.172,1.1Zm-3.516,0c0-.5.5-.937,1.172-1.1v2.2C7.325,8.229,6.828,7.791,6.828,7.292Zm3.516,3.516c0,.5-.5.937-1.172,1.1v-2.2C9.847,9.871,10.344,10.309,10.344,10.808Z" transform="translate(1.414 0.944)" fill="#007bc6"/>
    </g>
  </g>
</svg>
