<svg xmlns="http://www.w3.org/2000/svg" xmlns:xlink="http://www.w3.org/1999/xlink" width="21" height="21" viewBox="0 0 21 21">
  <defs>
    <clipPath id="clip-path">
      <rect id="Rectangle_312" data-name="Rectangle 312" width="21" height="21" transform="translate(375 1942)" fill="#f26e33" stroke="#707070" stroke-width="1"/>
    </clipPath>
  </defs>
  <g id="icon-share" transform="translate(-375 -1942)" clip-path="url(#clip-path)">
    <g id="share" transform="translate(375 1942)">
      <path id="Path_88" data-name="Path 88" d="M20.816,6.107,15.129.2A.656.656,0,0,0,14,.656V3.5h-.219A8.541,8.541,0,0,0,5.25,12.031v1.312a.648.648,0,0,0,.511.627.586.586,0,0,0,.144.017.679.679,0,0,0,.6-.374,7.177,7.177,0,0,1,6.456-3.99H14v2.844a.656.656,0,0,0,1.129.455l5.688-5.906a.656.656,0,0,0,0-.911Zm0,0" fill="#f26e33"/>
      <path id="Path_89" data-name="Path 89" d="M18.375,21H2.625A2.628,2.628,0,0,1,0,18.375V6.125A2.628,2.628,0,0,1,2.625,3.5H5.25a.875.875,0,1,1,0,1.75H2.625a.875.875,0,0,0-.875.875v12.25a.875.875,0,0,0,.875.875h15.75a.875.875,0,0,0,.875-.875v-7a.875.875,0,1,1,1.75,0v7A2.628,2.628,0,0,1,18.375,21Zm0,0" fill="#f26e33"/>
    </g>
  </g>
</svg>
