<svg xmlns="http://www.w3.org/2000/svg" xmlns:xlink="http://www.w3.org/1999/xlink" width="40" height="40" viewBox="0 0 40 40">
  <defs>
    <clipPath id="clip-path">
      <rect id="Rectangle_2999" data-name="Rectangle 2999" width="40" height="40" transform="translate(1011 1338)" fill="#007bc6" stroke="#707070" stroke-width="1"/>
    </clipPath>
  </defs>
  <g id="icon-war-2" transform="translate(-1011 -1338)" clip-path="url(#clip-path)">
    <g id="maintenance" transform="translate(1011 1338)">
      <path id="Path_2403" data-name="Path 2403" d="M31.8,23.594a8.033,8.033,0,0,0-1.9.229L26.077,20l3.84-3.84A8.18,8.18,0,0,0,39.2,4.666a1.172,1.172,0,0,0-1.886-.324l-3.3,3.3L32.356,5.987l3.3-3.3A1.172,1.172,0,0,0,35.334.8,8.18,8.18,0,0,0,23.84,10.083L20,13.923l-3.839-3.839A8.18,8.18,0,0,0,4.668.8a1.172,1.172,0,0,0-.324,1.886l3.3,3.3L5.988,7.645l-3.3-3.3A1.172,1.172,0,0,0,.8,4.668a8.18,8.18,0,0,0,9.285,11.494L13.923,20l-3.84,3.84A8.18,8.18,0,0,0,.8,35.334a1.172,1.172,0,0,0,1.886.324l3.3-3.3,1.657,1.657-3.3,3.3A1.172,1.172,0,0,0,4.666,39.2,8.18,8.18,0,0,0,16.16,29.917L20,26.077,23.822,29.9a8.034,8.034,0,0,0-.229,1.9,8.2,8.2,0,1,0,8.2-8.2ZM25.985,11.253a1.172,1.172,0,0,0,.283-1.2A5.833,5.833,0,0,1,32.627,2.4L29.87,5.158a1.172,1.172,0,0,0,0,1.657l3.315,3.315a1.172,1.172,0,0,0,1.657,0L37.6,7.373a5.833,5.833,0,0,1-7.651,6.36,1.172,1.172,0,0,0-1.2.283l-4.327,4.327-2.762-2.762ZM14.015,28.747a1.172,1.172,0,0,0-.283,1.2A5.833,5.833,0,0,1,7.373,37.6l2.757-2.757a1.172,1.172,0,0,0,0-1.657L6.815,29.87a1.172,1.172,0,0,0-1.657,0L2.4,32.627a5.833,5.833,0,0,1,7.651-6.36,1.172,1.172,0,0,0,1.2-.283l4.327-4.327,2.762,2.762ZM31.8,37.656A5.866,5.866,0,0,1,25.938,31.8a5.776,5.776,0,0,1,.312-1.86,1.172,1.172,0,0,0-.281-1.206L11.255,14.017a1.172,1.172,0,0,0-1.2-.283A5.833,5.833,0,0,1,2.4,7.375l2.757,2.757a1.172,1.172,0,0,0,1.657,0l3.315-3.315a1.172,1.172,0,0,0,0-1.657L7.375,2.4a5.833,5.833,0,0,1,6.36,7.651,1.172,1.172,0,0,0,.283,1.2L28.731,25.969a1.172,1.172,0,0,0,1.206.281,5.774,5.774,0,0,1,1.86-.312,5.859,5.859,0,0,1,0,11.719Z" fill="#007bc6"/>
      <path id="Path_2404" data-name="Path 2404" d="M33.6,28.625a1.172,1.172,0,0,0-.829-.343H30.826a1.171,1.171,0,0,0-.829.343L28.625,30a1.172,1.172,0,0,0-.343.829v1.942a1.171,1.171,0,0,0,.343.829L30,34.969a1.172,1.172,0,0,0,.829.343h1.942a1.171,1.171,0,0,0,.829-.343L34.969,33.6a1.172,1.172,0,0,0,.343-.829V30.826A1.171,1.171,0,0,0,34.969,30Zm-.628,3.658-.686.686h-.971l-.686-.686v-.971l.686-.686h.971l.686.686Z" fill="#007bc6"/>
    </g>
  </g>
</svg>
