<svg xmlns="http://www.w3.org/2000/svg" xmlns:xlink="http://www.w3.org/1999/xlink" width="20" height="20" viewBox="0 0 20 20">
  <defs>
    <clipPath id="clip-path">
      <rect id="Rectangle_2937" data-name="Rectangle 2937" width="20" height="20" transform="translate(855 2780)" fill="#007bc6" stroke="#707070" stroke-width="1"/>
    </clipPath>
  </defs>
  <g id="icon-solu-3" transform="translate(-855 -2780)" clip-path="url(#clip-path)">
    <g id="factory" transform="translate(855 2780.002)">
      <path id="Path_2369" data-name="Path 2369" d="M19.414,13h-1.16L17.479.549A.586.586,0,0,0,16.894,0h-3.32a.586.586,0,0,0-.585.549l-.673,10.814-1.772,1.182v-2.03a.586.586,0,0,0-.911-.488L5.858,12.545v-2.03a.586.586,0,0,0-.9-.493L.269,13.03A.586.586,0,0,0,0,13.523V19.41A.586.586,0,0,0,.586,20H19.414A.586.586,0,0,0,20,19.41V13.59A.586.586,0,0,0,19.414,13ZM16.344,1.172l.328,5.267H13.8l.328-5.267Zm-2.62,6.439h3.02L17.08,13H15.23V10.515a.586.586,0,0,0-.911-.488l-.778.519Zm5.1,11.214H16.419V17.63a.586.586,0,0,0-1.172,0v1.194H1.172V13.843l3.514-2.256V13.64a.586.586,0,0,0,.911.488L9.372,11.61v2.03a.586.586,0,0,0,.911.487l3.775-2.517v1.98a.586.586,0,0,0,.586.586h4.184Zm0,0" fill="#007bc6"/>
      <path id="Path_2370" data-name="Path 2370" d="M11.14,15.892a.586.586,0,0,0-.586.586v.586a.586.586,0,0,0,1.172,0v-.586A.586.586,0,0,0,11.14,15.892Zm0,0" fill="#007bc6"/>
      <path id="Path_2371" data-name="Path 2371" d="M8.78,15.892a.586.586,0,0,0-.586.586v.586a.586.586,0,0,0,1.172,0v-.586A.586.586,0,0,0,8.78,15.892Zm0,0" fill="#007bc6"/>
      <path id="Path_2372" data-name="Path 2372" d="M6.437,15.892a.586.586,0,0,0-.586.586v.586a.586.586,0,0,0,1.172,0v-.586A.586.586,0,0,0,6.437,15.892Zm0,0" fill="#007bc6"/>
      <path id="Path_2373" data-name="Path 2373" d="M4.093,15.892a.586.586,0,0,0-.586.586v.586a.586.586,0,0,0,1.172,0v-.586A.586.586,0,0,0,4.093,15.892Zm0,0" fill="#007bc6"/>
      <path id="Path_2374" data-name="Path 2374" d="M5.774,4.1h4.688a.586.586,0,0,0,0-1.172H5.774a.586.586,0,0,0,0,1.172Zm0,0" fill="#007bc6"/>
      <path id="Path_2375" data-name="Path 2375" d="M2.62,6.445H4.183a.586.586,0,0,0,0-1.172H2.62a.586.586,0,0,0,0,1.172Zm0,0" fill="#007bc6"/>
    </g>
  </g>
</svg>
