<svg xmlns="http://www.w3.org/2000/svg" xmlns:xlink="http://www.w3.org/1999/xlink" width="40" height="40" viewBox="0 0 40 40">
  <defs>
    <clipPath id="clip-path">
      <rect id="Rectangle_3000" data-name="Rectangle 3000" width="40" height="40" transform="translate(1011 1460)" fill="#007bc6" stroke="#707070" stroke-width="1"/>
    </clipPath>
  </defs>
  <g id="icon-war-3" transform="translate(-1011 -1460)" clip-path="url(#clip-path)">
    <g id="drop" transform="translate(1011 1460)">
      <g id="Group_418" data-name="Group 418">
        <g id="Group_417" data-name="Group 417">
          <path id="Path_2405" data-name="Path 2405" d="M23.695,4.41C22.771,3.052,21.956,1.8,21.2.661a1.654,1.654,0,0,0-.435-.435A1.416,1.416,0,0,0,18.8.661C18.1,1.8,17.283,3,16.305,4.41c-4.293,6.3-10.7,15.812-10.7,21.245A14.334,14.334,0,0,0,9.839,35.816,14.517,14.517,0,0,0,20,40,14.471,14.471,0,0,0,34.4,25.6C34.4,20.167,27.987,10.713,23.695,4.41Zm4.51,29.4A11.492,11.492,0,0,1,20,37.175a11.721,11.721,0,0,1-8.2-3.369,11.492,11.492,0,0,1-3.369-8.2c0-4.564,6.14-13.638,10.215-19.67.489-.706.924-1.413,1.358-2.01.435.6.869,1.3,1.358,2.01,4.075,6.086,10.215,15.105,10.215,19.67A11.721,11.721,0,0,1,28.2,33.806Z" fill="#007bc6"/>
        </g>
      </g>
      <g id="Group_420" data-name="Group 420">
        <g id="Group_419" data-name="Group 419">
          <path id="Path_2406" data-name="Path 2406" d="M28.422,24.623a1.393,1.393,0,0,0-1.467,1.3,6.994,6.994,0,0,1-1.032,3.314,6.6,6.6,0,0,1-2.5,2.391,1.436,1.436,0,0,0,1.413,2.5,9.415,9.415,0,0,0,3.477-3.369,9.247,9.247,0,0,0,1.413-4.673A1.393,1.393,0,0,0,28.422,24.623Z" fill="#007bc6"/>
        </g>
      </g>
    </g>
  </g>
</svg>
