<svg xmlns="http://www.w3.org/2000/svg" xmlns:xlink="http://www.w3.org/1999/xlink" width="40" height="40" viewBox="0 0 40 40">
  <defs>
    <clipPath id="clip-path">
      <rect id="Rectangle_2987" data-name="Rectangle 2987" width="40" height="40" transform="translate(1000 767)" fill="#007bc6" stroke="#707070" stroke-width="1"/>
    </clipPath>
  </defs>
  <g id="icon-policy-4" transform="translate(-1000 -767)" clip-path="url(#clip-path)">
    <g id="delivery" transform="translate(1000 767)">
      <path id="Path_2392" data-name="Path 2392" d="M38.828,2.422h-28.2A1.172,1.172,0,0,0,9.453,3.594V18.9a7.036,7.036,0,0,0-4.074,2.267H4.766V20a1.172,1.172,0,0,0-1.172-1.172H1.172a1.172,1.172,0,1,0,0,2.344h1.25V35.234H1.172a1.172,1.172,0,1,0,0,2.344H3.594a1.172,1.172,0,0,0,1.172-1.172V35.234h.989c7.474,2.365,7.191,2.344,7.526,2.344H29.375a3.519,3.519,0,0,0,3.314-4.687h6.139A1.172,1.172,0,0,0,40,31.719V3.594A1.172,1.172,0,0,0,38.828,2.422ZM22.344,4.766h4.688v5.859H22.344Zm8.2,29.3a1.173,1.173,0,0,1-1.172,1.172H13.464c-7.474-2.365-7.191-2.344-7.526-2.344H4.766V23.516H5.938a1.172,1.172,0,0,0,.943-.476,4.657,4.657,0,0,1,7.489,0,1.172,1.172,0,0,0,.943.476h5.859a1.172,1.172,0,0,1,0,2.344H14.141a1.172,1.172,0,0,0-1.172,1.172,5.866,5.866,0,0,0,5.859,5.859H29.375A1.173,1.173,0,0,1,30.547,34.063Zm7.109-3.516H18.828A3.522,3.522,0,0,1,15.513,28.2h5.659a3.516,3.516,0,0,0,0-7.031h-5.3A7.036,7.036,0,0,0,11.8,18.9V4.766H20V11.8a1.172,1.172,0,0,0,1.172,1.172H28.2A1.172,1.172,0,0,0,29.375,11.8V4.766h8.281Z" fill="#007bc6"/>
    </g>
  </g>
</svg>
