<svg id="icon-arowlong-1" xmlns="http://www.w3.org/2000/svg" width="41.325" height="104.371" viewBox="0 0 41.325 104.371">
  <path id="Path_2458" data-name="Path 2458" d="M964.911,383.319a1.314,1.314,0,0,1-.469-2.541c2.661-1.016,5.368-2.011,8.061-2.963a118.12,118.12,0,0,1,25.151-92.645,1.313,1.313,0,1,1,2.034,1.661,115.491,115.491,0,0,0-24.45,91.461,1.315,1.315,0,0,1-.089.728l-.1.233a1.312,1.312,0,0,1-.773.722c-2.967,1.04-5.961,2.135-8.9,3.256A1.314,1.314,0,0,1,964.911,383.319Z" transform="translate(-963.597 -278.947)" fill="#fff"/>
  <g id="Group_429" data-name="Group 429" transform="translate(28.928 0)">
    <path id="Path_2459" data-name="Path 2459" d="M1039.536,284.421l2.542-12.846-12.4,4.22Z" transform="translate(-1029.681 -271.575)" fill="#fff"/>
  </g>
</svg>
