<svg xmlns="http://www.w3.org/2000/svg" xmlns:xlink="http://www.w3.org/1999/xlink" width="32" height="32" viewBox="0 0 32 32">
  <defs>
    <clipPath id="clip-path">
      <rect id="Rectangle_3072" data-name="Rectangle 3072" width="32" height="32" transform="translate(3443 -755)" fill="#00395e"/>
    </clipPath>
  </defs>
  <g id="icon-intro-4" transform="translate(-3443 755)" clip-path="url(#clip-path)">
    <path id="Product_Package" d="M35.6,11.713,20.325,4.077a.729.729,0,0,0-.651,0L4.4,11.713a.727.727,0,0,0-.4.651V27.637a.727.727,0,0,0,.4.651l15.273,7.636a.729.729,0,0,0,.651,0L35.6,28.287a.727.727,0,0,0,.4-.651V12.364A.727.727,0,0,0,35.6,11.713ZM20,5.541l13.647,6.823-2.919,1.46L17.081,7Zm4.909,11.192L11.263,9.909l4.192-2.1L29.1,14.637Zm.545,1.353L29.818,15.9v5.41l-1.4-1A.727.727,0,0,0,27.4,20.5l-1.947,2.813ZM9.636,10.722l13.646,6.823L20,19.187,6.353,12.364ZM5.455,13.541,19.273,20.45V34.1L5.455,27.187ZM20.727,34.1V20.45L24,18.813v6.823a.728.728,0,0,0,1.325.414l2.853-4.12,1.945,1.389a.727.727,0,0,0,1.149-.592V15.177l3.273-1.636V27.187Z" transform="translate(3439 -759)" fill="#00395e"/>
  </g>
</svg>
