<svg xmlns="http://www.w3.org/2000/svg" xmlns:xlink="http://www.w3.org/1999/xlink" width="40" height="40" viewBox="0 0 40 40">
  <defs>
    <clipPath id="clip-path">
      <rect id="Rectangle_2995" data-name="Rectangle 2995" width="40" height="40" transform="translate(280 934)" fill="#007bc6" stroke="#707070" stroke-width="1"/>
    </clipPath>
  </defs>
  <g id="icon-policy-5" transform="translate(-280 -934)" clip-path="url(#clip-path)">
    <g id="this-side-up" transform="translate(280 934)">
      <path id="Path_2393" data-name="Path 2393" d="M13.35,28.8H6.441a1.172,1.172,0,0,1-1.172-1.172V14.965H2.734A1.172,1.172,0,0,1,1.72,13.206L8.881.843a1.172,1.172,0,0,1,2.028,0l7.161,12.363a1.172,1.172,0,0,1-1.014,1.759H14.521V27.632A1.172,1.172,0,0,1,13.35,28.8ZM7.613,26.46h4.565V13.793a1.172,1.172,0,0,1,1.172-1.172h1.674L9.9,3.768,4.767,12.621H6.441a1.172,1.172,0,0,1,1.172,1.172Z" fill="#007bc6"/>
      <path id="Path_2394" data-name="Path 2394" d="M33.559,28.8H26.65a1.172,1.172,0,0,1-1.172-1.172V14.965H22.943a1.172,1.172,0,0,1-1.014-1.759L29.09.843a1.172,1.172,0,0,1,2.028,0L38.28,13.206a1.172,1.172,0,0,1-1.014,1.759H34.73V27.632A1.172,1.172,0,0,1,33.559,28.8ZM27.822,26.46h4.565V13.793a1.172,1.172,0,0,1,1.172-1.172h1.674L30.1,3.768l-5.128,8.853H26.65a1.172,1.172,0,0,1,1.172,1.172Z" fill="#007bc6"/>
      <path id="Path_2395" data-name="Path 2395" d="M38.828,39.742H1.172A1.172,1.172,0,0,1,0,38.57V32.357a1.172,1.172,0,0,1,1.172-1.172H38.828A1.172,1.172,0,0,1,40,32.357V38.57A1.172,1.172,0,0,1,38.828,39.742ZM2.344,37.4H37.656V33.529H2.344Z" fill="#007bc6"/>
    </g>
  </g>
</svg>
