<svg xmlns="http://www.w3.org/2000/svg" xmlns:xlink="http://www.w3.org/1999/xlink" width="36" height="36" viewBox="0 0 36 36">
  <defs>
    <clipPath id="clip-path">
      <rect id="Rectangle_34" data-name="Rectangle 34" width="36" height="36" transform="translate(601 2195)" fill="#fff" stroke="#707070" stroke-width="1"/>
    </clipPath>
  </defs>
  <g id="icon-eye" transform="translate(-601 -2195)" clip-path="url(#clip-path)">
    <g id="Line" transform="translate(599.364 2192.953)">
      <path id="Path_24" data-name="Path 24" d="M10.227,19.276a5.678,5.678,0,1,0,5.678,5.678A5.678,5.678,0,0,0,10.227,19.276Zm0,9.72a4.042,4.042,0,1,1,4.042-4.042A4.091,4.091,0,0,1,10.227,29Z" fill="#fff"/>
      <path id="Path_25" data-name="Path 25" d="M29.045,19.276a5.678,5.678,0,1,0,5.678,5.678A5.678,5.678,0,0,0,29.045,19.276Zm0,9.72a4.042,4.042,0,1,1,4.042-4.042A4.091,4.091,0,0,1,29.045,29Z" fill="#fff"/>
      <path id="Path_26" data-name="Path 26" d="M36.818,21.273,31.827,11.094a.859.859,0,0,0-.319-.344l-.581-.352-.245-.139-.6-1.481a3.537,3.537,0,0,0-6.758.622l-.417,1.89h0l-.417,2.618h-.908a3.15,3.15,0,0,0-3.895,0h-.908l-.417-2.585h0l-.376-1.89a3.543,3.543,0,0,0-6.774-.655l-.6,1.481L8.37,10.4l-.581.352a.859.859,0,0,0-.319.344L2.455,21.273a8.484,8.484,0,0,0-.818,3.682A8.583,8.583,0,0,0,17.9,28.792a3.134,3.134,0,0,0,3.469,0,8.583,8.583,0,0,0,16.265-3.837,8.484,8.484,0,0,0-.818-3.682ZM24.905,9.72a1.915,1.915,0,0,1,3.657-.335l.057.147a6.545,6.545,0,0,0-3.739.344Zm-.425,2.2a5.105,5.105,0,0,1,5.228-.319h0l.368.2.376.229,2.618,5.335a8.55,8.55,0,0,0-9.7,1.145ZM10.71,9.384a1.915,1.915,0,0,1,3.657.335v.155a6.545,6.545,0,0,0-3.731-.344Zm-1.9,2.651.376-.229.368-.2h0a5.105,5.105,0,0,1,5.228.319l1.1,6.594a8.55,8.55,0,0,0-9.7-1.145Zm1.415,19.873a6.954,6.954,0,1,1,6.954-6.954,6.954,6.954,0,0,1-6.954,6.954ZM21.273,21.273a8.46,8.46,0,0,0-.818,3.665,8.82,8.82,0,0,0,.3,2.242h-.065a1.481,1.481,0,0,1-2.111,0h-.065a8.82,8.82,0,0,0,.3-2.225A8.46,8.46,0,0,0,18,21.273a.892.892,0,0,0,0-.147l-.941-5.58H18a.818.818,0,0,0,.581-.237,1.481,1.481,0,0,1,2.111,0,.818.818,0,0,0,.581.237h.941l-.941,5.6A.892.892,0,0,0,21.273,21.273Zm7.773,10.636A6.954,6.954,0,1,1,36,24.954,6.954,6.954,0,0,1,29.045,31.909Z" fill="#fff"/>
    </g>
  </g>
</svg>
