<svg xmlns="http://www.w3.org/2000/svg" xmlns:xlink="http://www.w3.org/1999/xlink" width="40" height="40" viewBox="0 0 40 40">
  <defs>
    <clipPath id="clip-path">
      <rect id="Rectangle_2988" data-name="Rectangle 2988" width="40" height="40" transform="translate(280 777)" fill="#007bc6" stroke="#707070" stroke-width="1"/>
    </clipPath>
  </defs>
  <g id="icon-policy-3" transform="translate(-280 -777)" clip-path="url(#clip-path)">
    <path id="express-delivery" d="M39.67,19.983l-6.723-6.946a1.172,1.172,0,0,0-.842-.357h-4.3V7.624a1.172,1.172,0,0,0-1.172-1.172H4.872A1.172,1.172,0,0,0,3.7,7.624v3.517H2.813a1.172,1.172,0,0,0,0,2.344H3.7v2.345H1.172a1.172,1.172,0,0,0,0,2.344H3.7V28.935a1.172,1.172,0,0,0,1.172,1.172H7.366a4.84,4.84,0,0,0,9.264.013H27.821a4.838,4.838,0,0,0,9.257,0h1.75A1.172,1.172,0,0,0,40,28.948V20.8a1.172,1.172,0,0,0-.33-.815Zm-3.607-.357H27.777v-4.6h3.832ZM6.044,18.173h6.1a1.172,1.172,0,0,0,0-2.344h-6.1V13.484H13a1.172,1.172,0,0,0,0-2.344H6.044V8.8H25.466l-.033,18.98H16.75a4.841,4.841,0,0,0-9.5-.013H6.044Zm7.724,12.3a2.5,2.5,0,1,1,0-3.531A2.48,2.48,0,0,1,13.768,30.473Zm20.447,0a2.5,2.5,0,1,1,.731-1.765,2.48,2.48,0,0,1-.731,1.765Zm2.983-2.7a4.837,4.837,0,0,0-9.421-.322V21.97h9.88v5.807Z" transform="translate(280 777)" fill="#007bc6"/>
  </g>
</svg>
