<svg xmlns="http://www.w3.org/2000/svg" xmlns:xlink="http://www.w3.org/1999/xlink" width="60" height="60" viewBox="0 0 60 60">
  <defs>
    <clipPath id="clip-path">
      <rect id="Rectangle_169" data-name="Rectangle 169" width="60" height="60" transform="translate(990 3950)" fill="#007bc6" stroke="#707070" stroke-width="1"/>
    </clipPath>
  </defs>
  <g id="icon--cus-3" transform="translate(-990 -3950)" clip-path="url(#clip-path)">
    <path id="shipping" d="M55.348,31.1V3.78a1.765,1.765,0,0,0-1.765-1.765H6.3A1.765,1.765,0,0,0,4.53,3.78v29.5a5.3,5.3,0,0,0-3.346,8.6l7.95,9.638c4.921,5.759,10.149,6.465,17.92,6.465,6.669,0,9.65.029,15.463-1.295l5.66-1.354a4.939,4.939,0,0,0,4.012,2.112h2.788A5.169,5.169,0,0,0,60,52.156V36.378A5.193,5.193,0,0,0,55.348,31.1Zm-7.933,3.631-2.352-1.194a13.983,13.983,0,0,0-12.265-.2c-1.072.421-3.409,1.836-4.621,1.788h-8.16a4.915,4.915,0,0,0-4.909,4.909v1.287l-.046-.047L9.234,34.952a5.375,5.375,0,0,0-1.174-.96V16.481H22.5v6.47a1.765,1.765,0,0,0,1.765,1.765H35.406a1.765,1.765,0,0,0,1.765-1.765v-6.47H51.818V31.1a5.09,5.09,0,0,0-4.4,3.631ZM26.034,16.481h7.607v4.7H26.034Zm25.784-3.53H37.171V5.545H51.818v7.406ZM33.641,5.545v7.406H26.034V5.545Zm-11.137,0v7.406H8.06V5.545ZM41.7,53.257c-5.369,1.23-8.6,1.18-14.58,1.18-7.3,0-10.82-.118-15.26-5.163l-7.95-9.638a1.785,1.785,0,0,1,2.731-2.293l5.827,6.325a8.013,8.013,0,0,0,5.867,2.572H34.489a1.765,1.765,0,0,0,0-3.53H18.637V40.037a1.381,1.381,0,0,1,1.379-1.379h8.16c1.838.132,4.492-1.4,6.109-2.117a10.471,10.471,0,0,1,9.182.146l3.7,1.877V51.949Zm14.773-1.1a1.647,1.647,0,0,1-1.494,1.762H52.188a1.647,1.647,0,0,1-1.494-1.762V36.378a1.647,1.647,0,0,1,1.494-1.763h2.788a1.647,1.647,0,0,1,1.494,1.763Z" transform="translate(990 3950)" fill="#007bc6"/>
  </g>
</svg>
